<svg xmlns="http://www.w3.org/2000/svg" width="49" height="48" viewBox="0 0 49 48" fill="none">
    <g clip-path="url(#clip0_18_576)">
        <path fill-rule="evenodd" clip-rule="evenodd" d="M19.544 30.2699L19.5425 16.6877L32.5115 23.5023L19.544 30.2699ZM48.02 14.3342C48.02 14.3342 47.5505 11.0032 46.112 9.53638C44.2865 7.61031 42.2405 7.60123 41.303 7.48944C34.586 6.99999 24.5105 7 24.5105 7H24.4895C24.4895 7 14.414 6.99999 7.69701 7.48944C6.75801 7.60123 4.71351 7.61031 2.88651 9.53638C1.44801 11.0032 0.979996 14.3342 0.979996 14.3342C0.979996 14.3342 0.5 18.2467 0.5 22.1578V25.8256C0.5 29.7382 0.979996 33.6492 0.979996 33.6492C0.979996 33.6492 1.44801 36.9802 2.88651 38.447C4.71351 40.3731 7.11199 40.3127 8.17999 40.5136C12.02 40.8852 24.5 41 24.5 41C24.5 41 34.586 40.9849 41.303 40.4955C42.2405 40.3822 44.2865 40.3731 46.112 38.447C47.5505 36.9802 48.02 33.6492 48.02 33.6492C48.02 33.6492 48.5 29.7382 48.5 25.8256V22.1578C48.5 18.2467 48.02 14.3342 48.02 14.3342Z" fill="#CE1312"/>
        <path d="M33 23.5L19.5 30.8612L19.5 16.1388L33 23.5Z" fill="white"/>
    </g>
    <defs>
        <clipPath id="clip0_18_576">
            <rect width="48" height="48" fill="white" transform="translate(0.5)"/>
        </clipPath>
    </defs>
</svg>