<svg width="25" height="18" viewBox="0 0 25 18" fill="none" xmlns="http://www.w3.org/2000/svg">
<g clip-path="url(#clip0_553_2)">
<path d="M26.5449 17.3034H11.8569" stroke="white" stroke-width="0.88093" stroke-miterlimit="10" stroke-linecap="round"/>
<path d="M58.2936 17.3034H43.6056" stroke="white" stroke-width="0.88093" stroke-miterlimit="10" stroke-linecap="round"/>
<path d="M1.78987 3.38737C1.77674 3.4227 1.77547 3.46128 1.78624 3.49738C1.83271 3.64384 2.08772 3.69484 2.35582 3.61131C2.47091 3.57767 2.57652 3.51795 2.66429 3.43687C3.3174 3.59025 3.9705 3.74363 4.62362 3.89701C4.74613 3.67713 5.01636 3.44085 5.38584 3.2263C5.4124 3.10269 5.47034 2.98783 5.55418 2.89258L2.65949 2.80288C2.62938 2.76618 2.59222 2.73577 2.55018 2.71338C2.50813 2.691 2.46203 2.67709 2.41453 2.67246C2.80577 2.31431 3.197 1.95616 3.58824 1.59802C3.52048 1.61261 3.45273 1.62719 3.38497 1.64179C3.00877 1.96829 2.63256 2.29479 2.25636 2.62129C2.2569 2.62256 2.25742 2.62385 2.25788 2.62518L2.2612 2.63395L2.26382 2.64327L2.26512 2.64805L2.26601 2.653L2.26771 2.66312C2.26802 2.66657 2.2682 2.67008 2.26841 2.67362L2.26871 2.67898C2.26872 2.68077 2.26857 2.68257 2.2685 2.68437L2.26786 2.69535C2.26749 2.69911 2.26692 2.70285 2.26616 2.70655C2.26466 2.71396 2.26263 2.72125 2.26006 2.72836C2.25024 2.75526 2.23368 2.77924 2.21193 2.79804C2.1945 2.81277 2.17449 2.82421 2.15289 2.83177C2.13875 2.8368 2.1241 2.84026 2.1092 2.84211C2.10398 2.84273 2.09991 2.84303 2.09716 2.84319L2.09296 2.84338L2.09689 2.84193C2.09946 2.84096 2.10323 2.83951 2.10799 2.83755C2.12126 2.83206 2.13409 2.82557 2.14637 2.81815C2.164 2.80761 2.18007 2.79468 2.19409 2.77975C2.19601 2.77767 2.19778 2.77543 2.19967 2.77326L2.2025 2.76998C2.20343 2.76886 2.20423 2.76764 2.20511 2.76647L2.21039 2.75936L2.21518 2.75174C2.22181 2.74121 2.22725 2.72999 2.2314 2.71828C2.23353 2.7124 2.23531 2.70641 2.23675 2.70033C2.23742 2.69735 2.23807 2.6945 2.23844 2.69158L2.23944 2.68269C2.23959 2.68121 2.23985 2.67975 2.23993 2.67828L2.23999 2.67389L2.24019 2.6652L2.23958 2.65667L2.23931 2.65245L2.23866 2.6483L2.23745 2.64011L2.23563 2.6322C2.23464 2.62691 2.23274 2.622 2.2314 2.61707C2.23037 2.61414 2.22933 2.61128 2.22828 2.60848C2.20552 2.57372 2.17225 2.54697 2.13323 2.53207C2.09421 2.51717 2.05143 2.51487 2.01101 2.5255C1.96143 2.54497 1.92119 2.58242 1.89846 2.63023C1.87574 2.67804 1.87223 2.73264 1.88866 2.78292C1.78058 2.84021 1.69699 2.93422 1.65324 3.04769C1.59486 3.07682 1.53648 3.10597 1.4781 3.13511C1.00965 3.55236 0.541203 3.96962 0.0727539 4.38688L0.395834 4.42401L1.78987 3.38737ZM5.40054 2.96704L5.27513 3.20538L2.68557 2.88178C3.59056 2.9102 4.49555 2.93862 5.40054 2.96704ZM2.9394 2.13961C3.24499 1.85999 3.50008 1.64123 3.50008 1.64123C3.50008 1.64123 3.25972 1.87581 2.95414 2.15543C2.64856 2.43504 2.39347 2.6538 2.39347 2.6538C2.39347 2.6538 2.63383 2.41923 2.9394 2.13961ZM1.99121 2.55524C2.00128 2.55007 2.0119 2.54604 2.02286 2.5432C2.06056 2.53342 2.10056 2.5374 2.13555 2.55441C2.17054 2.57142 2.19819 2.60033 2.21345 2.63587C2.2179 2.6462 2.22117 2.65699 2.22321 2.66803C2.22399 2.67203 2.2245 2.67607 2.22475 2.68014C2.22475 2.68014 2.22203 2.67668 2.21706 2.67086C2.21208 2.66505 2.20478 2.65692 2.19541 2.64786C2.18471 2.63758 2.17329 2.62809 2.16121 2.61946C2.13291 2.59926 2.10137 2.58392 2.06793 2.5741C2.05365 2.56993 2.03908 2.56678 2.02434 2.56468C2.01137 2.56288 2.00041 2.56215 1.99272 2.5618C1.98503 2.56147 1.98062 2.56144 1.98062 2.56144C1.98401 2.55915 1.98755 2.55708 1.99121 2.55524ZM1.24569 3.69567C1.35645 3.61172 1.4631 3.53232 1.561 3.46033C1.60996 3.42432 1.65672 3.39018 1.70072 3.35824C1.72275 3.3423 1.74403 3.32689 1.76458 3.31203C1.77485 3.30462 1.78493 3.29736 1.79481 3.29025L1.80948 3.2797L1.8167 3.27451L1.8185 3.27323L1.81946 3.27257L1.82107 3.2715C1.84278 3.21871 1.86238 3.17104 1.87959 3.12923C1.89739 3.08654 1.91269 3.04983 1.92518 3.01986L1.96447 2.92713C1.96447 2.92713 1.95312 2.96102 1.9325 3.02258C1.92201 3.0533 1.90918 3.09092 1.89425 3.13466C1.8867 3.15651 1.87863 3.17985 1.87006 3.20469C1.86574 3.21708 1.86131 3.22983 1.85675 3.24294L1.84981 3.26283L1.84626 3.27297L1.84144 3.28647C1.80412 3.31614 1.76341 3.34848 1.71988 3.38307C1.67725 3.41678 1.63175 3.45256 1.58387 3.48995C1.4881 3.56472 1.38285 3.64592 1.27209 3.72987C0.789595 4.09552 0.385272 4.37485 0.385272 4.37485C0.385272 4.37485 0.763202 4.06132 1.24569 3.69567Z" fill="white"/>
<path d="M12.9493 4.12367C12.9381 4.13724 12.9261 4.15005 12.9133 4.16203C12.9012 4.1734 12.8885 4.18409 12.8752 4.19406C12.8511 4.21214 12.8254 4.22812 12.7985 4.24181C12.7755 4.25357 12.7518 4.26388 12.7275 4.27269C12.6928 4.28525 12.6571 4.29502 12.6209 4.30189C12.6081 4.30433 12.5981 4.30586 12.5914 4.3068L12.5811 4.30818L12.5902 4.30328C12.5962 4.30012 12.605 4.29541 12.6162 4.28924C12.6386 4.27691 12.6707 4.2588 12.708 4.23425C12.7265 4.22194 12.7463 4.20798 12.7666 4.1922C12.7878 4.17571 12.8081 4.15798 12.8273 4.1391C12.8639 4.10381 12.894 4.06254 12.9165 4.01709C12.9456 3.95022 12.9502 3.87532 12.9293 3.80547C12.8832 3.6601 12.724 3.5702 12.5256 3.55714C12.9826 3.01229 13.4397 2.46743 13.8967 1.92258C13.8132 1.95237 13.7296 1.98216 13.6461 2.01196C13.2303 2.48177 12.8144 2.95157 12.3986 3.42137C12.3703 3.37721 12.328 3.34361 12.2783 3.32584C12.2286 3.30808 12.1744 3.30714 12.1242 3.32319C12.0739 3.33925 12.0305 3.37137 12.0006 3.41453C11.9708 3.45769 11.9562 3.50945 11.9592 3.56169C11.9601 3.5663 11.9612 3.57102 11.9624 3.57591C11.9657 3.58891 11.9703 3.60158 11.976 3.61376C11.9825 3.62714 11.9906 3.63971 12.0001 3.65123C12.0106 3.66342 12.0228 3.6741 12.0363 3.68295C12.0508 3.69226 12.0666 3.69947 12.0832 3.70435C12.1004 3.70934 12.1181 3.7126 12.136 3.71409C12.1449 3.71487 12.1536 3.71544 12.1625 3.71573C12.1716 3.71616 12.1799 3.71607 12.188 3.71621C12.2175 3.71567 12.2467 3.71108 12.2749 3.70258C12.2945 3.69668 12.3136 3.68917 12.3319 3.68012C12.3385 3.67688 12.3436 3.67416 12.3471 3.6723L12.3523 3.66942L12.3482 3.67377C12.3455 3.67658 12.3414 3.68068 12.3358 3.68568C12.3198 3.69993 12.3022 3.71226 12.2833 3.72242C12.27 3.72953 12.2562 3.73556 12.242 3.74046C12.2253 3.746 12.2082 3.75001 12.1909 3.75242C12.1816 3.75338 12.172 3.75442 12.1628 3.7548C12.1535 3.75535 12.1436 3.75548 12.1335 3.75522C12.1122 3.75475 12.0911 3.75151 12.0707 3.74559C12.0496 3.73937 12.0299 3.72956 12.0123 3.7166C11.996 3.70441 11.9819 3.68959 11.9706 3.67275C11.9608 3.65762 11.9532 3.64119 11.9481 3.62395C11.944 3.60926 11.9416 3.59416 11.9409 3.57894C11.9407 3.57476 11.9407 3.57077 11.9407 3.56687L8.91783 3.04963C8.91867 3.01289 8.91347 2.97626 8.90243 2.94118C8.81303 2.65944 8.35178 2.53089 7.72799 2.56833C7.49895 2.32395 6.97098 2.25639 6.42347 2.42699C5.87596 2.59759 5.48201 2.95241 5.43532 3.28271C4.90216 3.60578 4.59815 3.97277 4.68755 4.25451C4.69915 4.29071 4.71679 4.32472 4.73976 4.35512L2.55362 6.49943C2.55591 6.5026 2.55821 6.50589 2.56049 6.50939C2.56872 6.52227 2.57546 6.53602 2.58057 6.55039C2.58634 6.56743 2.58963 6.5852 2.59032 6.60315C2.59078 6.62338 2.58778 6.64353 2.58146 6.66276C2.57449 6.68338 2.56395 6.70264 2.55029 6.71966C2.53696 6.73611 2.52151 6.75076 2.50432 6.76321C2.49621 6.76914 2.48803 6.77462 2.48003 6.7795C2.4723 6.78437 2.4638 6.78898 2.45567 6.79345C2.44003 6.80131 2.42369 6.80772 2.40686 6.8126C2.39235 6.81667 2.37753 6.81957 2.36255 6.82126C2.34119 6.82364 2.31962 6.82352 2.2983 6.82088C2.29082 6.81995 2.2851 6.81891 2.28123 6.81817L2.27535 6.81693L2.28131 6.81632C2.28521 6.81589 2.29093 6.81524 2.29823 6.81415C2.31851 6.81116 2.3385 6.8065 2.358 6.8002C2.38601 6.79119 2.41263 6.77838 2.43709 6.76213C2.44371 6.75738 2.4505 6.75279 2.45773 6.74726C2.46484 6.74199 2.47172 6.73654 2.47855 6.73087C2.49235 6.71951 2.50496 6.70681 2.51621 6.69296C2.527 6.67954 2.5358 6.66466 2.54234 6.64877C2.5483 6.63387 2.55212 6.61821 2.55367 6.60225C2.55482 6.58743 2.5542 6.57252 2.55183 6.55783C2.54946 6.54462 2.54587 6.53166 2.5411 6.5191C2.53927 6.51441 2.53738 6.50995 2.53546 6.50566C2.50778 6.4611 2.46596 6.42691 2.41656 6.40844C2.36715 6.38998 2.31296 6.38828 2.26248 6.40362C2.212 6.41896 2.16808 6.45046 2.13762 6.4932C2.10715 6.53594 2.09186 6.58748 2.09414 6.63976C1.48182 6.49033 0.8695 6.34089 0.257175 6.19145C0.171452 6.2144 0.0857272 6.23735 0 6.2603C0.689469 6.44791 1.37894 6.63552 2.0684 6.82313C1.91322 6.94637 1.83462 7.11035 1.88074 7.25572C1.90398 7.32483 1.95097 7.38367 2.01351 7.42197C2.05815 7.44651 2.10673 7.46324 2.15711 7.47144C2.18372 7.47606 2.21059 7.4791 2.23756 7.48055C2.26326 7.48202 2.28756 7.48225 2.3099 7.48181C2.35459 7.48084 2.39138 7.47749 2.41686 7.47488C2.42962 7.47359 2.43957 7.47245 2.44631 7.47164L2.45665 7.47046L2.44739 7.47518C2.4413 7.47826 2.43225 7.48264 2.42039 7.48788C2.38666 7.50282 2.35177 7.51504 2.31606 7.52443C2.29104 7.53098 2.26564 7.53597 2.23999 7.53937C2.21002 7.5434 2.17975 7.54485 2.14953 7.54371C2.13288 7.54307 2.11628 7.54151 2.09981 7.53903C2.08236 7.53649 2.06511 7.53279 2.04816 7.52797C2.03454 7.52417 2.02116 7.5196 2.00808 7.51427C1.99158 7.55791 1.98987 7.60569 2.00319 7.65038C2.06013 7.82982 2.37257 7.89231 2.70105 7.78995C3.02953 7.6876 3.24966 7.45916 3.19272 7.27973C3.17961 7.24017 3.15492 7.20537 3.12179 7.17976L5.29518 7.5405L5.64052 7.30973C4.87493 7.11861 4.10934 6.92748 3.34374 6.73636C4.26421 6.21202 5.64819 5.42365 5.64819 5.42365C5.62149 5.43886 5.62636 5.65731 5.62404 5.69249C5.61781 5.78665 5.61391 5.88092 5.61233 5.97532C5.60931 6.1564 5.61559 6.3371 5.63016 6.51764C5.65796 6.86133 5.71424 7.20216 5.79845 7.5367C5.77319 7.58396 5.7624 7.63749 5.76741 7.69074C5.77242 7.74399 5.79301 7.79463 5.82666 7.83644C5.86031 7.87825 5.90555 7.90941 5.95682 7.9261C6.00809 7.94279 6.06317 7.94428 6.11528 7.93038C6.1674 7.91648 6.21428 7.8878 6.25017 7.84787C6.28607 7.80794 6.30942 7.75848 6.31735 7.70559C6.32527 7.65269 6.31744 7.59864 6.29481 7.5501C6.27217 7.50155 6.23573 7.46061 6.18994 7.4323C6.18621 7.43044 6.18243 7.42863 6.17856 7.42689C6.1532 7.41576 6.12632 7.40844 6.09878 7.40517C6.07545 7.40245 6.05189 7.4022 6.0285 7.40444C6.01215 7.40596 5.99592 7.40852 5.9799 7.41211C5.96838 7.41471 5.962 7.41667 5.962 7.41667C5.96685 7.41276 5.97196 7.40916 5.97728 7.40591C6.01425 7.38296 6.05672 7.37018 6.10033 7.36887C6.11799 7.36843 6.13563 7.37007 6.1529 7.37374L6.14824 7.35784C6.00269 6.85984 5.96451 6.34145 5.95189 5.82538C5.95061 5.7737 5.92239 5.39763 6.01782 5.39437C6.11244 5.39114 6.20958 5.38444 6.31496 5.37214L6.40563 5.65788C6.41504 5.68829 6.43043 5.71655 6.45091 5.74105C6.47139 5.76554 6.49656 5.78578 6.52496 5.8006C6.55336 5.81542 6.58444 5.82453 6.61641 5.82741C6.64838 5.83029 6.6806 5.82687 6.71123 5.81736L8.27281 5.33078C8.3357 5.31149 8.38846 5.26856 8.41979 5.21119C8.45113 5.15382 8.45854 5.08657 8.44044 5.02384L8.34196 4.71347C8.39132 4.6836 8.44575 4.65099 8.49554 4.61876C8.58536 4.63541 8.74118 4.90191 8.76704 4.9406C9.05472 5.37098 9.32164 5.81809 9.48988 6.30901C9.49167 6.31422 9.49288 6.31965 9.49467 6.32488C9.50661 6.31211 9.52004 6.3008 9.53468 6.29117C9.57111 6.26752 9.61325 6.25394 9.65675 6.25182C9.66299 6.25147 9.66923 6.25153 9.67546 6.25199C9.67546 6.25199 9.66908 6.25401 9.65814 6.25841C9.64292 6.26455 9.62813 6.27166 9.61384 6.27969C9.59337 6.29112 9.57418 6.30468 9.55662 6.32014C9.53594 6.33844 9.51811 6.35969 9.50374 6.38319C9.50157 6.38681 9.49952 6.39045 9.49753 6.39409C9.47634 6.44326 9.47011 6.49749 9.4796 6.55012C9.48908 6.60275 9.51386 6.6515 9.55091 6.69036C9.58795 6.72923 9.63565 6.75653 9.68813 6.76892C9.74062 6.7813 9.79561 6.77823 9.84636 6.76008C9.8971 6.74192 9.94139 6.70948 9.9738 6.66673C10.0062 6.62399 10.0253 6.57279 10.0287 6.51944C10.0322 6.46608 10.0199 6.41289 9.99323 6.36639C9.9666 6.31989 9.92685 6.28211 9.87886 6.25769C9.75472 5.93559 9.60404 5.62417 9.42835 5.32657C9.33604 5.17025 9.23652 5.01863 9.12978 4.87172C9.07399 4.79524 9.01634 4.72014 8.95683 4.64643C8.9346 4.6189 8.81245 4.43699 8.78176 4.43966C8.78176 4.43966 10.372 4.30129 11.4296 4.20926C10.9122 4.80017 10.3947 5.39108 9.87729 5.98199L10.2938 5.97538L11.8677 4.44699C11.8553 4.48678 11.8552 4.52932 11.8673 4.5692C11.9242 4.74863 12.2367 4.81113 12.5651 4.70878C12.8936 4.60642 13.1137 4.37798 13.0568 4.19855C13.0419 4.15434 13.0129 4.11613 12.9742 4.08969C12.9666 4.10149 12.9582 4.11283 12.9493 4.12367ZM13.0383 2.73055C13.3765 2.33843 13.6672 2.03454 13.6672 2.03454C13.6672 2.03454 13.4096 2.3664 13.0713 2.75853C12.7331 3.15065 12.4423 3.45454 12.4423 3.45454C12.4423 3.45454 12.7 3.12267 13.0383 2.73055ZM12.1307 3.35904C12.1251 3.36407 12.1174 3.37152 12.1087 3.38084C12.0654 3.42769 12.0339 3.48402 12.0169 3.54523C12.0135 3.55752 12.0113 3.56797 12.0099 3.57531L12.0078 3.58689L12.0065 3.58409C12.0058 3.58224 12.0044 3.57951 12.0032 3.5759C11.9994 3.56561 11.9967 3.55496 11.9952 3.54412C11.9928 3.52776 11.9929 3.51115 11.9953 3.4948C12.0012 3.45375 12.0221 3.41628 12.0541 3.38952C12.0668 3.37879 12.0809 3.36992 12.0962 3.36322C12.1063 3.35874 12.1168 3.35533 12.1276 3.35305C12.1314 3.35219 12.1344 3.35185 12.1364 3.35152L12.1395 3.3511L12.1307 3.35904ZM2.26882 6.43378C2.27065 6.43292 2.27333 6.43148 2.27691 6.43005C2.28709 6.42579 2.2977 6.42261 2.30855 6.42057C2.32492 6.41743 2.34166 6.41665 2.35826 6.41827C2.39992 6.4221 2.43872 6.44096 2.46727 6.47128C2.47871 6.48329 2.48834 6.49688 2.49586 6.51163C2.50086 6.52139 2.50482 6.53165 2.50765 6.54223C2.5087 6.54591 2.50919 6.5489 2.50962 6.55086L2.51019 6.55387L2.50176 6.54558C2.49642 6.54033 2.48853 6.53304 2.47871 6.52485C2.42935 6.48434 2.37103 6.45599 2.3085 6.4421C2.29594 6.43941 2.28531 6.43768 2.27784 6.43671L2.26606 6.43518L2.26882 6.43378ZM1.15968 6.4777C0.65584 6.34797 0.252868 6.22196 0.252868 6.22196C0.252868 6.22196 0.666767 6.3063 1.1706 6.43603C1.67444 6.56576 2.07741 6.69177 2.07741 6.69177C2.07741 6.69177 1.66351 6.60744 1.15968 6.4777ZM3.57816 6.82836C3.7397 6.86702 3.91619 6.91006 4.10033 6.95617C4.90903 7.15864 5.5593 7.34366 5.5593 7.34366C5.5593 7.34366 4.89839 7.20039 4.08969 6.99791C3.90554 6.9518 3.72961 6.9066 3.56891 6.86459C3.48862 6.8434 3.41208 6.82321 3.34019 6.80425C3.26886 6.7851 3.20215 6.76718 3.14094 6.75075C3.05965 6.74723 2.98625 6.74404 2.92185 6.74126C2.85706 6.73821 2.80135 6.73559 2.75585 6.73345L2.61478 6.72622C2.61478 6.72622 2.66495 6.72601 2.75603 6.72561C2.80158 6.7256 2.85736 6.72559 2.92223 6.72558C2.9875 6.72583 3.0619 6.7261 3.14428 6.72641C3.20686 6.74097 3.27504 6.75683 3.34796 6.77379C3.4203 6.79094 3.49734 6.8092 3.57816 6.82836ZM4.76802 4.81507L2.67112 6.49615L4.68665 4.55865L4.76802 4.81507ZM6.4415 2.48774C6.84675 2.36409 7.28442 2.3992 7.66432 2.58585C7.27459 2.51363 6.87292 2.5375 6.49469 2.65536C6.11646 2.77321 5.77329 2.98143 5.4954 3.26167C5.69914 2.89317 6.03777 2.61616 6.4415 2.48774ZM5.58047 3.5266C5.59669 3.52992 5.62064 3.53466 5.65149 3.54004C5.73802 3.5552 5.82532 3.56563 5.913 3.57128C5.96816 3.57488 6.02852 3.57696 6.09307 3.57614C6.15761 3.57531 6.22634 3.57223 6.29805 3.56485C6.36977 3.55755 6.44453 3.54693 6.52104 3.53148C6.59991 3.51551 6.67791 3.49555 6.75471 3.47166C6.90335 3.42534 7.04681 3.36405 7.18284 3.28877C7.29502 3.22642 7.4019 3.15513 7.50242 3.07562C7.57108 3.02128 7.63671 2.9633 7.69905 2.90194C7.72128 2.88006 7.73819 2.86261 7.74959 2.8507L7.76698 2.83248L7.76373 2.83798C7.76157 2.84162 7.75838 2.84705 7.75404 2.85407C7.74544 2.86816 7.73248 2.88881 7.71474 2.9148C7.66432 2.98845 7.60815 3.05806 7.54672 3.123C7.45478 3.2203 7.35207 3.30703 7.24054 3.38155C7.17419 3.42569 7.10489 3.46532 7.03312 3.50014C6.95591 3.5377 6.87592 3.56937 6.79384 3.59487C6.5661 3.66561 6.32613 3.68926 6.08879 3.66433C6.02669 3.65794 5.96499 3.64823 5.90395 3.63524C5.81608 3.61679 5.72983 3.59146 5.64602 3.55948C5.61649 3.54817 5.59394 3.53858 5.57875 3.53188C5.57115 3.52858 5.5654 3.52593 5.56153 3.52418L5.55569 3.5215L5.58047 3.5266ZM4.86495 4.37495C4.89402 4.38237 4.93696 4.39296 4.99248 4.40516C5.048 4.41735 5.11612 4.43112 5.19553 4.44443C5.27496 4.45764 5.3657 4.47022 5.46622 4.48012C5.51647 4.48525 5.56921 4.4891 5.62413 4.49261L5.66575 4.4947C5.67977 4.4953 5.69389 4.4963 5.70818 4.4966C5.73676 4.49736 5.76581 4.49874 5.79541 4.49884C5.8102 4.49905 5.82512 4.49925 5.84016 4.49945C5.85519 4.49938 5.87034 4.4993 5.88563 4.49922C5.91617 4.49935 5.94719 4.49825 5.97864 4.49753C5.99437 4.49731 6.0102 4.49639 6.02613 4.49572L6.07426 4.49356C6.09039 4.49251 6.10662 4.49144 6.12297 4.49037C6.13114 4.48985 6.13933 4.48933 6.14756 4.48879C6.15577 4.48831 6.164 4.48743 6.17227 4.48677C6.18877 4.48535 6.20538 4.48392 6.2221 4.48249L6.23465 4.48141L6.24722 4.48005L6.27245 4.47733C6.2893 4.47545 6.30628 4.47387 6.3233 4.47174C6.34031 4.46954 6.3574 4.46733 6.37459 4.4651L6.40043 4.46178L6.42633 4.45783C6.44363 4.45521 6.46101 4.45257 6.47848 4.44992C6.49595 4.44724 6.51339 4.44388 6.53097 4.44089C6.53974 4.43935 6.54854 4.43781 6.55737 4.43627C6.56619 4.43476 6.57504 4.43324 6.58384 4.43138C6.72966 4.40344 6.87377 4.36736 7.01548 4.3233C7.15721 4.27932 7.29617 4.22702 7.43163 4.16669C7.55806 4.1105 7.68138 4.04769 7.80107 3.97852C7.80831 3.9745 7.81538 3.97027 7.82242 3.96603C7.82947 3.96181 7.83649 3.9576 7.8435 3.9534C7.85752 3.94501 7.87146 3.93667 7.8853 3.92839C7.89896 3.91981 7.91252 3.91129 7.92599 3.90283C7.93941 3.89429 7.953 3.88616 7.96599 3.87739L8.00504 3.8517C8.0115 3.84746 8.01794 3.84322 8.02435 3.839L8.04324 3.82599C8.0558 3.81737 8.06825 3.80881 8.08061 3.80032C8.08683 3.79612 8.09292 3.7918 8.09894 3.78744L8.11698 3.77448C8.21296 3.70584 8.29948 3.63762 8.37634 3.57263C8.49803 3.4696 8.61344 3.35949 8.72196 3.2429C8.76052 3.20148 8.78963 3.16846 8.80921 3.14592L8.83899 3.11144L8.8326 3.12108C8.82837 3.12746 8.82211 3.13697 8.81366 3.14929C8.79688 3.17401 8.77172 3.21022 8.73766 3.25577C8.64105 3.38465 8.5351 3.50638 8.42064 3.62001C8.34801 3.6921 8.26504 3.76798 8.17143 3.84437C8.16559 3.84916 8.15971 3.85396 8.15381 3.85878C8.14794 3.86363 8.14198 3.86844 8.13589 3.87312L8.09923 3.90171C8.09307 3.90651 8.08688 3.91132 8.08066 3.91616L8.06163 3.93032C8.04887 3.93978 8.03602 3.9493 8.02306 3.95889C8.01021 3.96863 7.99674 3.97771 7.98341 3.9872C7.97002 3.9966 7.95653 4.00607 7.94294 4.01561L7.90123 4.04343L7.88014 4.05744C7.87309 4.06215 7.866 4.06683 7.85875 4.0713C7.73842 4.14832 7.61325 4.21765 7.48401 4.27888C7.3451 4.34483 7.20159 4.40085 7.0546 4.44651C6.90764 4.49217 6.75769 4.52778 6.6058 4.55306C6.59664 4.55476 6.58744 4.55611 6.57826 4.55745L6.55079 4.56152C6.53252 4.56412 6.51437 4.56708 6.49622 4.56933C6.47806 4.57151 6.45999 4.57368 6.44201 4.57584L6.41511 4.57904C6.40614 4.57987 6.3972 4.58071 6.38828 4.58156C6.37044 4.58321 6.3527 4.58486 6.33505 4.5865C6.3174 4.58803 6.2998 4.589 6.28232 4.59023L6.25619 4.59198L6.24318 4.59283L6.23019 4.59341L6.17862 4.59557C6.17007 4.59586 6.16158 4.59638 6.15308 4.59649C6.14459 4.59664 6.13612 4.59679 6.12769 4.59694C6.11082 4.59722 6.09406 4.59749 6.07741 4.59777C6.06076 4.59768 6.04423 4.59758 6.02782 4.59747C6.0114 4.59732 5.99511 4.59738 5.97894 4.59674C5.9466 4.59572 5.91475 4.59503 5.88344 4.59307L5.83686 4.5905C5.82149 4.58934 5.80624 4.58819 5.79112 4.58704C5.76087 4.58501 5.73124 4.58167 5.70215 4.57891C5.6876 4.57762 5.67324 4.57562 5.659 4.57402C5.64477 4.57229 5.63066 4.57069 5.61673 4.56888C5.56104 4.56131 5.50775 4.55333 5.45718 4.54407C5.35599 4.52594 5.26546 4.50516 5.18676 4.48436C5.10807 4.46347 5.04119 4.44271 4.987 4.4246C4.9328 4.40649 4.89126 4.39103 4.86323 4.38024C4.8492 4.37492 4.83858 4.37065 4.83142 4.36783L4.82062 4.36353L4.86495 4.37495ZM7.46711 5.47761C6.99487 5.62476 6.60553 5.72351 6.60553 5.72351C6.60553 5.72351 6.98184 5.58369 7.45408 5.43654C7.92632 5.28939 8.31567 5.19064 8.31567 5.19064C8.31567 5.19064 7.93936 5.33046 7.46711 5.47761ZM7.42257 5.33725C6.95033 5.48439 6.56099 5.58314 6.56099 5.58314C6.56099 5.58314 6.9373 5.44332 7.40954 5.29617C7.88178 5.14902 8.27113 5.05027 8.27113 5.05027C8.27113 5.05027 7.89482 5.1901 7.42257 5.33725ZM7.3726 5.17976C6.90036 5.32691 6.51102 5.42566 6.51102 5.42566C6.51102 5.42566 6.88733 5.28584 7.35957 5.13869C7.83181 4.99154 8.22116 4.89279 8.22116 4.89279C8.22116 4.89279 7.84485 5.03261 7.3726 5.17976ZM9.05063 3.79156C9.04627 3.79784 9.03982 3.80721 9.03113 3.81935C9.01389 3.8437 8.98807 3.87939 8.95326 3.92424C8.85464 4.05109 8.74711 4.17088 8.63148 4.28273C8.55814 4.35364 8.47459 4.42825 8.38057 4.50335L8.36288 4.51751C8.35698 4.52228 8.35101 4.52701 8.3449 4.53161C8.33274 4.5409 8.32048 4.55027 8.30813 4.55971L8.2895 4.57393L8.27042 4.58784C8.25764 4.59714 8.24476 4.6065 8.23178 4.61594C8.21889 4.62551 8.20541 4.63443 8.19206 4.64376C8.17866 4.653 8.16515 4.66232 8.15156 4.67169C8.13775 4.68076 8.12384 4.68987 8.10983 4.69905L8.08874 4.71283C8.0817 4.71746 8.07461 4.72207 8.06736 4.72646C7.94713 4.80217 7.82227 4.87042 7.6935 4.9308C7.55516 4.99582 7.41242 5.05122 7.26631 5.0966C7.12023 5.14199 6.97125 5.17767 6.82037 5.2034C6.81126 5.20512 6.80212 5.20652 6.793 5.20788L6.76571 5.21203C6.74754 5.21471 6.72952 5.21773 6.71149 5.22005C6.69344 5.22231 6.67548 5.22455 6.65762 5.2268L6.63089 5.23012L6.60422 5.23277C6.58649 5.23452 6.56886 5.23627 6.55132 5.238C6.53377 5.23963 6.51627 5.24069 6.4989 5.24204L6.47291 5.24395L6.45998 5.24489L6.44706 5.24555C6.42987 5.24639 6.41278 5.24723 6.39579 5.24806C6.38729 5.24842 6.37883 5.24899 6.37038 5.24917L6.34513 5.24981C6.32834 5.25021 6.31167 5.25062 6.29511 5.25103C6.27855 5.25107 6.2621 5.25111 6.24576 5.25115C6.22943 5.25112 6.21322 5.25133 6.19712 5.25084C6.16493 5.2501 6.13321 5.24971 6.10203 5.24805C6.08644 5.24735 6.07097 5.24666 6.05563 5.24596C6.04032 5.24495 6.02513 5.24395 6.01006 5.24297C5.97992 5.24126 5.95039 5.23824 5.92139 5.23583C5.90687 5.23469 5.89256 5.23287 5.87836 5.23143C5.86416 5.22987 5.8501 5.22833 5.83619 5.2268C5.78063 5.2199 5.72742 5.21261 5.67692 5.20404C5.57584 5.18729 5.48526 5.16787 5.40645 5.14833C5.32764 5.1287 5.26056 5.10911 5.20614 5.09198C5.15171 5.07486 5.10995 5.06021 5.08176 5.04998C5.06763 5.04495 5.05694 5.0409 5.04973 5.03823L5.03885 5.03416C5.03885 5.03416 5.05401 5.0384 5.08289 5.04646C5.11178 5.05444 5.15449 5.06584 5.20979 5.07902C5.26509 5.0922 5.33301 5.10714 5.4123 5.1217C5.4916 5.13618 5.58231 5.15014 5.68294 5.1614C5.73324 5.16722 5.78608 5.17176 5.84112 5.17594C5.85489 5.1768 5.8688 5.17767 5.88286 5.17854C5.89691 5.17931 5.91107 5.18047 5.9254 5.18094C5.95407 5.18203 5.98321 5.18374 6.01293 5.18417C6.02777 5.18452 6.04274 5.18489 6.05783 5.18525L6.10349 5.18549C6.13416 5.18592 6.16532 5.18512 6.19692 5.1847C6.21272 5.18461 6.22862 5.18384 6.24464 5.18331C6.26065 5.18272 6.27678 5.18214 6.29301 5.18155C6.30922 5.18062 6.32554 5.17969 6.34198 5.17876L6.3667 5.17737C6.37497 5.17694 6.38324 5.17612 6.39155 5.17552C6.40815 5.17422 6.42486 5.17292 6.44167 5.17161L6.45429 5.17061L6.46693 5.16933L6.49231 5.16677C6.50928 5.16499 6.52636 5.16353 6.54348 5.1615C6.56059 5.15939 6.57779 5.15726 6.59509 5.15513L6.6211 5.15194L6.64716 5.14812C6.66457 5.14558 6.68207 5.14302 6.69966 5.14044C6.71724 5.13783 6.7348 5.13454 6.75249 5.13162L6.77907 5.12709C6.78796 5.12561 6.79686 5.12412 6.80573 5.12229C6.95256 5.09479 7.09765 5.05878 7.24023 5.01446C7.38283 4.9702 7.52255 4.91728 7.65858 4.85601C7.78547 4.79899 7.9091 4.73509 8.0289 4.66461C8.03615 4.66052 8.04323 4.65621 8.05026 4.65188L8.07135 4.63903C8.08536 4.63048 8.09929 4.62199 8.11313 4.61355C8.12677 4.60482 8.14032 4.59614 8.15378 4.58751C8.1672 4.57882 8.18076 4.57053 8.19373 4.56159C8.20682 4.55281 8.21981 4.54409 8.2327 4.53543L8.25196 4.52248C8.25826 4.51805 8.26454 4.51363 8.27079 4.50923C8.28331 4.50044 8.29573 4.49172 8.30805 4.48307C8.31425 4.4788 8.32031 4.4744 8.32631 4.46995L8.34428 4.45676C8.43987 4.38682 8.5258 4.31731 8.60194 4.25115C8.7224 4.14636 8.83623 4.03432 8.9428 3.91567C8.98061 3.87356 9.00906 3.84 9.02817 3.8171C9.0377 3.80562 9.04496 3.79687 9.04985 3.79098L9.05721 3.78206L9.05063 3.79156ZM9.16658 3.4445L9.08522 3.18808L11.857 3.63389L9.16658 3.4445ZM11.9101 3.87347C11.874 3.90102 11.8298 3.93477 11.7784 3.97401C11.7272 4.01282 11.6689 4.05705 11.6043 4.10604C11.5636 4.15424 11.5192 4.20676 11.4718 4.26292C11.4238 4.31924 11.3727 4.37921 11.3191 4.44212C11.2115 4.5677 11.0934 4.70453 10.969 4.84678C10.4227 5.47145 9.96351 5.96375 9.96351 5.96375C9.96351 5.96375 10.3899 5.44325 10.9361 4.81858C11.0605 4.67634 11.1804 4.54096 11.2905 4.41764C11.3458 4.3561 11.3984 4.29744 11.4478 4.24234C11.4978 4.18709 11.5446 4.13541 11.5875 4.08799L11.7691 3.96137C11.8223 3.9246 11.868 3.89297 11.9054 3.86715L12.0216 3.78755C12.0216 3.78755 11.982 3.81806 11.9101 3.87347Z" fill="white"/>
<path d="M9.71933 0.602996L7.39734 2.31819C7.52109 2.34874 7.63494 2.41007 7.72811 2.49638C8.15501 2.46277 8.51306 2.5033 8.74052 2.61413C9.18752 2.11796 9.63452 1.62179 10.0815 1.12562C10.2003 1.14234 10.3214 1.13142 10.4352 1.09373C10.7033 1.01019 10.883 0.823741 10.8365 0.677288C10.8245 0.641569 10.8012 0.610646 10.77 0.589115L12.5119 0.64864L12.7554 0.434972C12.1302 0.358461 11.5051 0.281951 10.88 0.205446C10.8153 0.214655 10.7506 0.223868 10.6859 0.233085C10.5845 0.164847 10.4616 0.135156 10.3399 0.149466C10.3243 0.0989183 10.2899 0.05614 10.2437 0.0298217C10.1974 0.00350341 10.1428 -0.00438199 10.0909 0.00777049C10.0516 0.0219725 10.0179 0.0481172 9.99448 0.0824667C9.97109 0.116816 9.95925 0.157614 9.96066 0.199031C9.96141 0.201927 9.96222 0.204863 9.96307 0.20784C9.96481 0.212645 9.96609 0.217742 9.96833 0.222639L9.97141 0.230162L9.97515 0.237567L9.97701 0.241337L9.97922 0.244953L9.98365 0.252295L9.98883 0.259311L9.99142 0.262879C9.99233 0.264028 9.99339 0.265088 9.99436 0.266208L10.0003 0.272933C10.0023 0.275118 10.0045 0.277092 10.0068 0.279153C10.0115 0.28332 10.0164 0.287217 10.0215 0.290827C10.0317 0.298083 10.0426 0.304205 10.0541 0.30908L10.0625 0.31261L10.0709 0.315446C10.0723 0.315902 10.0737 0.316451 10.0751 0.316846L10.0793 0.31793C10.0821 0.318631 10.0848 0.319465 10.0876 0.320088C10.1077 0.324379 10.1284 0.325871 10.1489 0.324516C10.1633 0.323637 10.1775 0.321681 10.1916 0.318666C10.1966 0.317568 10.2006 0.316614 10.2032 0.315958L10.2073 0.314911L10.2037 0.317148C10.2014 0.318573 10.1979 0.320628 10.1932 0.323086C10.1799 0.330022 10.1659 0.335485 10.1514 0.339375C10.1294 0.345427 10.1063 0.347401 10.0835 0.345197C10.0548 0.342119 10.0274 0.331851 10.0038 0.315363C9.99762 0.310982 9.99174 0.306158 9.98623 0.300929C9.98347 0.298328 9.98084 0.295584 9.97837 0.292709L9.97151 0.284076C9.97041 0.282628 9.96924 0.281242 9.96822 0.279762L9.96537 0.275211C9.9635 0.272181 9.96163 0.269195 9.95988 0.266199L9.95543 0.256932L9.9533 0.252373L9.95161 0.247708L9.94837 0.238574L9.94602 0.2295C9.94564 0.228154 9.94532 0.226806 9.94503 0.225456C9.44797 0.171063 8.95091 0.116666 8.45384 0.0622694L8.26187 0.141654C8.78955 0.21348 9.31722 0.285306 9.84488 0.357129C9.8086 0.387858 9.77882 0.425408 9.75727 0.467609C9.73572 0.50981 9.72282 0.555826 9.71933 0.602996ZM7.80768 2.41623L7.56719 2.2919C8.29291 1.75536 9.01863 1.21882 9.74436 0.682273L7.80768 2.41623ZM10.4468 0.364491C10.4744 0.381987 10.5081 0.40341 10.5473 0.428318C10.5856 0.452857 10.6292 0.480835 10.6775 0.511802L10.6794 0.511769L10.6806 0.511765L10.6828 0.511802L10.6917 0.511954L10.7099 0.51229C10.7221 0.512517 10.7345 0.51275 10.7472 0.512993C10.7727 0.513537 10.799 0.514098 10.8263 0.514675C10.8808 0.515918 10.9389 0.5174 10.9998 0.519164C11.1217 0.522676 11.255 0.527302 11.3943 0.533328C12.0011 0.559559 12.4921 0.602331 12.4921 0.602331C12.4921 0.602331 11.9993 0.602571 11.3924 0.576342C11.2531 0.570315 11.1199 0.563425 10.9982 0.556418C10.9373 0.552906 10.8793 0.549371 10.8249 0.545908C10.7692 0.542222 10.7172 0.538789 10.6695 0.535631L10.6577 0.527291L10.6489 0.520985L10.6317 0.508612L10.5988 0.484793C10.5774 0.469314 10.5573 0.454746 10.5385 0.441091C10.501 0.413687 10.4687 0.390116 10.4424 0.370868C10.3899 0.332077 10.361 0.310723 10.361 0.310723C10.361 0.310723 10.3915 0.329813 10.4468 0.364491ZM10.1026 0.0474532C10.0917 0.0575326 10.0816 0.068377 10.0723 0.0799031C10.0506 0.106922 10.0335 0.137379 10.022 0.169996C10.0171 0.183926 10.0132 0.198189 10.0104 0.212675C10.0079 0.225424 10.0066 0.236237 10.0059 0.243826C10.0052 0.251424 10.0049 0.255788 10.0049 0.255788C10.0028 0.252313 10.0009 0.248707 9.99922 0.244994C9.99451 0.234777 9.99097 0.224074 9.98864 0.213083C9.98065 0.175284 9.98663 0.135896 10.0055 0.102103C10.0244 0.068309 10.0549 0.0423631 10.0914 0.0289958C10.1021 0.0251064 10.1131 0.0223994 10.1243 0.0209264C10.1284 0.0203607 10.1325 0.0200522 10.1366 0.0200016C10.1366 0.0200016 10.133 0.0225177 10.1269 0.0271613C10.1208 0.0318048 10.1122 0.0386235 10.1026 0.0474532ZM9.10378 0.239156C8.6917 0.183157 8.35912 0.127102 8.35912 0.127102C8.35912 0.127102 8.69466 0.16183 9.10673 0.217832C9.5188 0.273834 9.85137 0.329891 9.85137 0.329891C9.85137 0.329891 9.51585 0.29515 9.10378 0.239156Z" fill="white"/>
<path d="M6.35681 7.43676L9.40152 6.43881L9.72123 7.39634L7.94198 7.97957L8.42389 9.42358L10.0114 8.90319L10.3107 9.79997L8.7232 10.3204L9.52481 12.7219L8.25934 13.1367L6.35681 7.43676Z" fill="white"/>
<path d="M11.9535 7.76239H13.8842C14.5573 7.76239 15.0528 7.90783 15.3706 8.19871C15.6882 8.48963 15.8471 8.95788 15.8472 9.60347C15.8472 10.0572 15.7758 10.4255 15.6332 10.7083C15.4884 10.9929 15.238 11.2109 14.9345 11.3166L15.7825 13.7661H14.5142L13.7227 11.4926H13.2865V13.7661H11.9535V7.76239ZM13.8518 10.4841C14.0117 10.4933 14.1695 10.4449 14.2962 10.348C14.4014 10.2619 14.4682 10.1383 14.4821 10.0038C14.5088 9.75367 14.5088 9.50146 14.4821 9.25135C14.472 9.13042 14.419 9.01695 14.3325 8.93105C14.2286 8.83414 14.0915 8.77983 13.9488 8.77903C13.9224 8.77258 13.8952 8.76989 13.868 8.77101H13.2865V10.4841H13.8518Z" fill="white"/>
<path d="M16.2269 7.76239H19.4341V8.77102H17.5599V10.2919H19.232V11.2366H17.5599V12.7574H19.4341V13.7661H16.2269V7.76239Z" fill="white"/>
<path d="M19.7811 9.46746C19.7745 9.19042 19.8211 8.91465 19.9185 8.65487C20.0017 8.43968 20.1377 8.24847 20.3144 8.09859C20.496 7.94972 20.7082 7.84181 20.9362 7.78236C21.2024 7.71269 21.4768 7.67906 21.7521 7.68236C22.035 7.67847 22.3172 7.70936 22.5924 7.77434C22.817 7.82689 23.0259 7.93113 23.2023 8.07862C23.3718 8.22815 23.4997 8.41834 23.5738 8.63095C23.664 8.90053 23.7063 9.18356 23.699 9.46746C23.699 9.5102 23.6975 9.55282 23.695 9.59556C23.6922 9.6383 23.6881 9.68096 23.6828 9.72354H22.35C22.3565 9.68791 22.3592 9.65172 22.358 9.61554V9.4994C22.3584 9.39753 22.3504 9.2958 22.3339 9.19525C22.3198 9.10532 22.2897 9.01859 22.245 8.93906C22.2008 8.86337 22.1365 8.80112 22.0592 8.75905C21.9645 8.71047 21.8587 8.68703 21.7521 8.691C21.5869 8.68472 21.4253 8.74046 21.2997 8.84708C21.2396 8.90236 21.1925 8.97012 21.1618 9.04552C21.131 9.12092 21.1175 9.2021 21.1221 9.28328C21.1181 9.37359 21.1333 9.46373 21.1666 9.54786C21.2 9.63198 21.2509 9.70822 21.3159 9.77162C21.4585 9.90346 21.6206 10.0128 21.7966 10.0959C21.9877 10.1892 22.1964 10.2813 22.4227 10.372C22.645 10.4606 22.8552 10.5762 23.0488 10.7161C23.2424 10.8577 23.4057 11.0359 23.5293 11.2405C23.6586 11.4514 23.7233 11.7249 23.7233 12.061C23.7299 12.338 23.6833 12.6138 23.586 12.8736C23.5027 13.0887 23.3666 13.2799 23.1901 13.4299C23.0084 13.5788 22.7961 13.6867 22.568 13.7461C22.3019 13.8157 22.0274 13.8494 21.7521 13.8461C21.4693 13.85 21.1872 13.8191 20.9121 13.7541C20.6874 13.7016 20.4785 13.5974 20.3022 13.4498C20.1324 13.3005 20.0045 13.1102 19.9307 12.8975C19.8404 12.6279 19.798 12.3449 19.8055 12.061V11.9329C19.8055 11.8901 19.8081 11.8474 19.8135 11.8049H21.1465V12.029C21.1463 12.1296 21.1544 12.2299 21.1706 12.3291C21.1841 12.4205 21.2142 12.5086 21.2594 12.5894C21.3027 12.6644 21.3654 12.7265 21.4411 12.7694C21.5369 12.8189 21.6442 12.8424 21.7521 12.8375C21.8377 12.8425 21.9234 12.8294 22.0035 12.799C22.0836 12.7687 22.1563 12.7218 22.2167 12.6614C22.3318 12.5313 22.3913 12.3619 22.3824 12.1891C22.3869 12.0999 22.3719 12.0108 22.3384 11.9279C22.3049 11.845 22.2537 11.7703 22.1883 11.7089C22.0445 11.5819 21.8826 11.4767 21.7078 11.3966C21.5165 11.3059 21.3079 11.2178 21.0818 11.1325C20.8594 11.0492 20.6489 10.9375 20.4557 10.8002C20.2623 10.6617 20.0988 10.4861 19.975 10.2839C19.8458 10.0758 19.7812 9.80364 19.7811 9.46746Z" fill="white"/>
<path d="M24.1675 7.76239H25.5004L26.6717 11.6127V7.76239H28.0047V13.7661H26.6717L25.5004 9.90774V13.7661H24.1675V7.76239Z" fill="white"/>
<path d="M28.5051 9.29931C28.4983 9.04739 28.5437 8.79677 28.6384 8.5629C28.7214 8.36772 28.8518 8.19586 29.0179 8.0626C29.1957 7.92533 29.4008 7.82708 29.6198 7.77435C30.1458 7.65171 30.6933 7.65171 31.2193 7.77435C31.4393 7.82766 31.6456 7.92583 31.8252 8.0626C31.9933 8.19492 32.1252 8.36695 32.2089 8.5629C32.3035 8.79679 32.3488 9.04741 32.342 9.29931V12.2211C32.3485 12.4743 32.3033 12.7262 32.2089 12.9616C32.1261 13.1591 31.994 13.3326 31.8252 13.4659C31.6457 13.6027 31.4393 13.7009 31.2193 13.7541C30.6933 13.8767 30.1458 13.8767 29.6198 13.7541C29.4001 13.7012 29.1947 13.6015 29.0179 13.4619C28.8522 13.3266 28.722 13.1536 28.6384 12.9575C28.5437 12.7237 28.4983 12.4731 28.5051 12.2211V9.29931ZM29.838 12.3012C29.8346 12.4418 29.8867 12.5783 29.9833 12.6814C30.0801 12.7854 30.2255 12.8375 30.4195 12.8375C30.6188 12.8375 30.7668 12.7841 30.8637 12.6774C30.959 12.5751 31.0111 12.4404 31.0093 12.3012V9.2193C31.0116 9.08116 30.9594 8.94759 30.8637 8.84709C30.7669 8.74303 30.6189 8.691 30.4195 8.691C30.2257 8.691 30.0803 8.74303 29.9833 8.84709C29.8878 8.94762 29.8356 9.08119 29.838 9.2193V12.3012Z" fill="white"/>
<path d="M35.6873 7.82742H37.0057V10.3295H38.1643V7.82742H39.4827V13.7661H38.1643V11.264H37.0057V13.7661H35.6873V7.82742Z" fill="white"/>
<path d="M39.978 7.82742H43.1503V8.82513H41.2965V10.3295H42.9505V11.264H41.2965V12.7684H43.1503V13.7661H39.978V7.82742Z" fill="white"/>
<path d="M43.6056 7.82742H44.924V13.7661H43.6056V7.82742Z" fill="white"/>
<path d="M45.4517 9.34775C45.445 9.09855 45.4898 8.85061 45.5834 8.61924C45.6657 8.42618 45.7946 8.25618 45.9589 8.12427C46.1348 7.98854 46.3377 7.8914 46.5543 7.83928C47.0745 7.71788 47.6161 7.71788 48.1364 7.83928C48.354 7.89198 48.5581 7.98904 48.7357 8.12427C48.902 8.25526 49.0324 8.42543 49.1152 8.61924C49.209 8.85059 49.2539 9.09853 49.2472 9.34775V9.92575H47.9287V9.26854C47.931 9.1319 47.8794 8.99977 47.7848 8.90028C47.689 8.79739 47.5425 8.74594 47.3453 8.74594C47.1536 8.74594 47.0098 8.79739 46.9138 8.90028C46.8193 8.9998 46.7678 9.13193 46.7702 9.26854V12.3171C46.7668 12.4562 46.8183 12.5911 46.9138 12.6931C47.0097 12.7961 47.1535 12.8476 47.3453 12.8476C47.5425 12.8476 47.689 12.7948 47.7848 12.6892C47.8791 12.5879 47.9306 12.4548 47.9287 12.3171V11.8974H47.4651V10.955H49.2472V12.2379C49.2536 12.4884 49.2087 12.7375 49.1152 12.9703C49.0333 13.1657 48.9027 13.3373 48.7357 13.4691C48.5582 13.6045 48.3541 13.7016 48.1364 13.7542C47.6161 13.8756 47.0745 13.8756 46.5543 13.7542C46.337 13.702 46.1338 13.6033 45.9589 13.4652C45.795 13.3313 45.6662 13.1602 45.5834 12.9664C45.4898 12.735 45.445 12.4871 45.4517 12.2379V9.34775Z" fill="white"/>
<path d="M49.7264 7.82742H51.0449V10.3295H52.2035V7.82742H53.5219V13.7661H52.2035V11.264H51.0449V13.7661H49.7264V7.82742Z" fill="white"/>
<path d="M57.7967 7.82742V8.82513H56.5183V13.7661H55.1999V8.82513H53.9213V7.82742H57.7967Z" fill="white"/>
<path d="M58.1005 9.51393C58.0939 9.23992 58.14 8.96718 58.2364 8.71028C58.3187 8.49744 58.4532 8.30829 58.6279 8.15992C58.8076 8.01266 59.0176 7.90594 59.2431 7.84717C59.5064 7.77824 59.7778 7.74495 60.0501 7.74822C60.3299 7.74435 60.6091 7.77494 60.8813 7.83927C61.1034 7.89122 61.3101 7.99431 61.4846 8.14018C61.6523 8.28804 61.7789 8.47616 61.8521 8.68647C61.9412 8.95315 61.9831 9.2331 61.9759 9.51393C61.9759 9.55632 61.9745 9.59847 61.9719 9.64063C61.9693 9.68302 61.9651 9.72518 61.9599 9.76733H60.6415C60.6479 9.7321 60.6506 9.69628 60.6494 9.66049V9.54563C60.6498 9.44485 60.6418 9.34421 60.6255 9.24473C60.6117 9.15575 60.5819 9.06993 60.5376 8.99132C60.494 8.91643 60.4304 8.85482 60.3539 8.81317C60.2602 8.76519 60.1555 8.74203 60.0501 8.74593C59.8867 8.73972 59.7269 8.79484 59.6027 8.90027C59.5431 8.95496 59.4965 9.022 59.4661 9.09659C59.4357 9.17119 59.4223 9.25151 59.4269 9.33183C59.4229 9.42115 59.4379 9.51031 59.471 9.59351C59.504 9.67672 59.5543 9.75212 59.6186 9.81483C59.7596 9.94523 59.92 10.0534 60.0942 10.1356C60.2831 10.2279 60.4895 10.319 60.7134 10.4087C60.9333 10.4964 61.1413 10.6108 61.3327 10.7492C61.5242 10.8892 61.6858 11.0655 61.808 11.2679C61.936 11.4765 62 11.747 62 12.0795C62.0065 12.3535 61.9604 12.6262 61.8641 12.8832C61.7817 13.096 61.6472 13.2851 61.4726 13.4335C61.2929 13.5808 61.0829 13.6875 60.8574 13.7463C60.594 13.8152 60.3225 13.8485 60.0501 13.8453C59.7704 13.8491 59.4913 13.8186 59.2192 13.7542C58.997 13.7024 58.7903 13.5993 58.6159 13.4533C58.448 13.3055 58.3214 13.1173 58.2484 12.9069C58.159 12.6403 58.117 12.3603 58.1244 12.0795V11.9527C58.1244 11.9104 58.1272 11.8681 58.1326 11.826H59.451V12.0479C59.4509 12.1473 59.4589 12.2465 59.4749 12.3447C59.4883 12.435 59.5181 12.5222 59.5628 12.6021C59.6055 12.6763 59.6676 12.7379 59.7426 12.7802C59.8373 12.8292 59.9434 12.8525 60.0501 12.8476C60.1348 12.8525 60.2196 12.8396 60.2989 12.8095C60.3781 12.7795 60.45 12.7331 60.5097 12.6734C60.6235 12.5446 60.6821 12.377 60.6734 12.2062C60.6779 12.1179 60.6631 12.0298 60.63 11.9478C60.5969 11.8658 60.5463 11.7918 60.4816 11.731C60.3393 11.6056 60.1791 11.5015 60.0063 11.4222C59.8171 11.3326 59.6107 11.2455 59.387 11.1609C59.167 11.0786 58.9589 10.9682 58.7678 10.8324C58.5764 10.6954 58.4147 10.5217 58.2922 10.3216C58.1645 10.1157 58.1005 9.84649 58.1005 9.51393Z" fill="white"/>
<path d="M28.2482 16.3643H28.7629C28.8353 16.3634 28.9076 16.3718 28.9779 16.3891C29.0371 16.4034 29.0925 16.4297 29.1408 16.4665C29.186 16.5021 29.2215 16.5484 29.244 16.6011C29.2694 16.6639 29.2816 16.7313 29.2798 16.7991V17.5416C29.2816 17.6097 29.2694 17.6774 29.244 17.7407C29.2217 17.7938 29.1862 17.8405 29.1408 17.8763C29.0926 17.9131 29.0371 17.9395 28.9779 17.9538C28.9076 17.971 28.8353 17.9793 28.7629 17.9785H28.2482V16.3643ZM28.7629 17.7073C28.7848 17.709 28.8068 17.7061 28.8274 17.6987C28.848 17.6913 28.8668 17.6795 28.8824 17.6643C28.908 17.6367 28.922 17.6005 28.9215 17.5631V16.7775C28.9221 16.7404 28.9081 16.7045 28.8824 16.6775C28.8666 16.6625 28.8478 16.6511 28.8272 16.6438C28.8066 16.6366 28.7847 16.6338 28.7629 16.6355H28.6065V17.7073H28.7629Z" fill="white"/>
<path d="M29.4081 16.3643H29.9272C30.1082 16.3643 30.2414 16.4034 30.3268 16.4816C30.4123 16.5598 30.455 16.6857 30.4549 16.8593C30.459 16.9614 30.4393 17.063 30.3974 17.1563C30.3585 17.2329 30.2911 17.2915 30.2095 17.3199L30.4375 17.9785H30.0966L29.8838 17.3672H29.7664V17.9785H29.4081V16.3643ZM29.9185 17.0961C29.9614 17.0986 30.0039 17.0856 30.038 17.0595C30.0662 17.0363 30.0841 17.0031 30.0879 16.9669C30.0951 16.8997 30.0951 16.8319 30.0879 16.7646C30.0852 16.7321 30.071 16.7016 30.0477 16.6785C30.0198 16.6525 29.9829 16.6379 29.9446 16.6376C29.9375 16.6359 29.9301 16.6352 29.9228 16.6355H29.7664V17.0961H29.9185Z" fill="white"/>
<path d="M30.5613 16.7775C30.5595 16.7098 30.5717 16.6424 30.5972 16.5795C30.6195 16.527 30.6546 16.4808 30.6993 16.445C30.7471 16.4081 30.8022 16.3817 30.8611 16.3675C31.0025 16.3345 31.1497 16.3345 31.2912 16.3675C31.3503 16.3818 31.4057 16.4082 31.454 16.445C31.4992 16.4805 31.5347 16.5268 31.5571 16.5795C31.5826 16.6424 31.5949 16.7098 31.5931 16.7775V17.5631C31.5948 17.6312 31.5826 17.6989 31.5571 17.7622C31.5349 17.8153 31.4994 17.862 31.454 17.8978C31.4058 17.9346 31.3503 17.961 31.2912 17.9753C31.1497 18.0082 31.0025 18.0082 30.8611 17.9753C30.802 17.961 30.7468 17.9342 30.6993 17.8967C30.6547 17.8603 30.6197 17.8138 30.5972 17.7611C30.5717 17.6982 30.5595 17.6308 30.5613 17.5631V16.7775ZM30.9197 17.5846C30.9188 17.6225 30.9328 17.6592 30.9588 17.6869C30.9922 17.7142 31.0341 17.729 31.0774 17.7288C31.1207 17.7286 31.1625 17.7134 31.1956 17.6858C31.2211 17.6583 31.2351 17.6221 31.2346 17.5846V16.756C31.2352 16.7189 31.2212 16.683 31.1956 16.6559C31.1797 16.641 31.1609 16.6295 31.1403 16.6223C31.1197 16.6151 31.0978 16.6122 31.0761 16.614C31.0546 16.6123 31.0331 16.6152 31.0129 16.6225C30.9927 16.6297 30.9743 16.6411 30.9588 16.6559C30.9331 16.6829 30.919 16.7189 30.9197 16.756L30.9197 17.5846Z" fill="white"/>
<path d="M31.7211 16.3643H32.0794L32.3944 17.3995V16.3643H32.7527V17.9785H32.3944L32.0794 16.9411V17.9785H31.7211V16.3643Z" fill="white"/>
<path d="M33.3913 16.8228C33.3895 16.7483 33.4021 16.6741 33.4283 16.6043C33.4506 16.5465 33.4872 16.495 33.5346 16.4547C33.5835 16.4147 33.6406 16.3857 33.7019 16.3697C33.7734 16.351 33.8472 16.3419 33.9212 16.3428C33.9973 16.3417 34.0731 16.3501 34.1471 16.3675C34.2075 16.3817 34.2637 16.4097 34.3112 16.4493C34.3567 16.4895 34.3911 16.5407 34.411 16.5978C34.4353 16.6703 34.4467 16.7464 34.4447 16.8228C34.4447 16.8343 34.4444 16.8457 34.4436 16.8572C34.4429 16.8687 34.4418 16.8802 34.4403 16.8916H34.082C34.0838 16.882 34.0845 16.8723 34.0841 16.8626V16.8314C34.0843 16.804 34.0821 16.7766 34.0776 16.7496C34.0738 16.7254 34.0658 16.7021 34.0538 16.6807C34.0419 16.6604 34.0246 16.6436 34.0038 16.6323C33.9783 16.6192 33.9499 16.6129 33.9212 16.614C33.8768 16.6123 33.8334 16.6273 33.7996 16.6559C33.7835 16.6708 33.7708 16.689 33.7625 16.7093C33.7543 16.7296 33.7507 16.7514 33.7519 16.7732C33.7508 16.7975 33.7549 16.8218 33.7638 16.8444C33.7728 16.867 33.7865 16.8875 33.804 16.9046C33.8423 16.94 33.8859 16.9694 33.9332 16.9917C33.9846 17.0168 34.0407 17.0416 34.1015 17.0659C34.1613 17.0898 34.2178 17.1209 34.2698 17.1585C34.3219 17.1966 34.3658 17.2445 34.3991 17.2995C34.4365 17.3669 34.4545 17.4432 34.4512 17.5201C34.453 17.5945 34.4404 17.6687 34.4143 17.7385C34.3919 17.7964 34.3553 17.8478 34.3079 17.8881C34.259 17.9282 34.2019 17.9572 34.1406 17.9731C34.069 17.9919 33.9952 18.0009 33.9212 18C33.8452 18.0011 33.7693 17.9928 33.6954 17.9753C33.635 17.9612 33.5788 17.9332 33.5314 17.8935C33.4858 17.8533 33.4513 17.8022 33.4315 17.745C33.4072 17.6725 33.3958 17.5964 33.3978 17.5201V17.4856C33.3978 17.4741 33.3985 17.4626 33.4 17.4512H33.7583V17.5115C33.7583 17.5385 33.7605 17.5655 33.7649 17.5922C33.7685 17.6167 33.7766 17.6404 33.7888 17.6621C33.8004 17.6823 33.8173 17.699 33.8377 17.7106C33.8634 17.7239 33.8922 17.7302 33.9212 17.7289C33.9443 17.7302 33.9673 17.7267 33.9888 17.7185C34.0104 17.7104 34.0299 17.6977 34.0461 17.6815C34.0771 17.6465 34.0931 17.601 34.0907 17.5545C34.0919 17.5305 34.0879 17.5066 34.0789 17.4843C34.0699 17.462 34.0561 17.4419 34.0386 17.4254C33.9999 17.3913 33.9563 17.363 33.9093 17.3414C33.858 17.3171 33.8019 17.2934 33.741 17.2704C33.6812 17.248 33.6246 17.218 33.5726 17.1811C33.5206 17.1439 33.4767 17.0967 33.4435 17.0423C33.4059 16.9753 33.3878 16.8993 33.3913 16.8228Z" fill="white"/>
<path d="M34.5706 16.3643H35.4329V16.6355H34.9289V17.0444H35.3785V17.2984H34.9289V17.7073H35.4329V17.9785H34.5706L34.5706 16.3643Z" fill="white"/>
<path d="M35.5522 16.3643H36.0713C36.2524 16.3643 36.3856 16.4034 36.471 16.4816C36.5564 16.5598 36.5991 16.6857 36.5991 16.8593C36.6032 16.9614 36.5835 17.063 36.5415 17.1563C36.5026 17.2329 36.4353 17.2915 36.3536 17.3199L36.5817 17.9785H36.2408L36.0279 17.3672H35.9106V17.9785H35.5522V16.3643ZM36.0626 17.0961C36.1056 17.0986 36.148 17.0856 36.1821 17.0595C36.2104 17.0363 36.2283 17.0031 36.2321 16.9669C36.2393 16.8997 36.2393 16.8319 36.2321 16.7646C36.2294 16.7321 36.2151 16.7016 36.1919 16.6785C36.1639 16.6525 36.1271 16.6379 36.0887 16.6376C36.0816 16.6359 36.0743 16.6352 36.067 16.6355H35.9106V17.0961H36.0626Z" fill="white"/>
<path d="M36.6686 16.3643H37.0422L37.1921 17.7073H37.2333L37.3832 16.3643H37.7568L37.5135 17.9785H36.9119L36.6686 16.3643Z" fill="white"/>
<path d="M37.8698 16.3643H38.2281V17.9785H37.8698L37.8698 16.3643Z" fill="white"/>
<path d="M39.4031 17.5631C39.4049 17.6312 39.3926 17.6989 39.3672 17.7622C39.345 17.8153 39.3095 17.862 39.264 17.8978C39.2158 17.9346 39.1604 17.961 39.1012 17.9753C38.9598 18.0082 38.8126 18.0082 38.6711 17.9753C38.6121 17.961 38.5568 17.9342 38.5093 17.8967C38.4648 17.8603 38.4297 17.8138 38.4072 17.7611C38.3818 17.6982 38.3696 17.6308 38.3714 17.5631V16.7775C38.3696 16.7098 38.3818 16.6424 38.4072 16.5795C38.4296 16.527 38.4647 16.4808 38.5093 16.445C38.5571 16.4081 38.6123 16.3817 38.6711 16.3675C38.8126 16.3345 38.9598 16.3345 39.1012 16.3675C39.1603 16.3818 39.2158 16.4082 39.264 16.445C39.3093 16.4805 39.3447 16.5268 39.3672 16.5795C39.3927 16.6424 39.4049 16.7098 39.4031 16.7775V17.0143H39.0447V16.756C39.0453 16.7189 39.0313 16.683 39.0056 16.6559C38.9898 16.641 38.971 16.6295 38.9504 16.6223C38.9298 16.6151 38.9079 16.6122 38.8861 16.614C38.8647 16.6123 38.8432 16.6152 38.823 16.6225C38.8028 16.6297 38.7843 16.6411 38.7689 16.6559C38.7432 16.6829 38.7291 16.7189 38.7297 16.756V17.5846C38.7288 17.6225 38.7429 17.6592 38.7689 17.6869C38.8022 17.7142 38.8442 17.729 38.8875 17.7288C38.9307 17.7286 38.9725 17.7134 39.0056 17.6858C39.0312 17.6583 39.0452 17.6221 39.0447 17.5846V17.3263H39.4031L39.4031 17.5631Z" fill="white"/>
<path d="M39.5312 16.3643H40.3935V16.6355H39.8896V17.0444H40.3392V17.2984H39.8896V17.7073H40.3935V17.9785H39.5312V16.3643Z" fill="white"/>
<path d="M40.4869 16.8228C40.4851 16.7483 40.4976 16.6741 40.5238 16.6043C40.5462 16.5465 40.5827 16.495 40.6302 16.4547C40.6791 16.4147 40.7362 16.3857 40.7975 16.3697C40.869 16.351 40.9428 16.3419 41.0168 16.3428C41.0929 16.3417 41.1687 16.3501 41.2427 16.3675C41.3031 16.3817 41.3593 16.4097 41.4067 16.4493C41.4523 16.4895 41.4867 16.5407 41.5066 16.5978C41.5308 16.6703 41.5422 16.7464 41.5402 16.8228C41.5402 16.8343 41.5399 16.8457 41.5392 16.8572C41.5385 16.8687 41.5373 16.8802 41.5359 16.8916H41.1776C41.1793 16.882 41.1801 16.8723 41.1797 16.8626V16.8314C41.1798 16.804 41.1777 16.7766 41.1732 16.7496C41.1694 16.7254 41.1613 16.7021 41.1494 16.6807C41.1375 16.6604 41.1202 16.6436 41.0994 16.6323C41.0739 16.6192 41.0455 16.6129 41.0168 16.614C40.9724 16.6123 40.929 16.6273 40.8952 16.6559C40.8791 16.6708 40.8664 16.689 40.8581 16.7093C40.8499 16.7296 40.8462 16.7514 40.8475 16.7732C40.8464 16.7975 40.8505 16.8218 40.8594 16.8444C40.8684 16.867 40.8821 16.8875 40.8996 16.9046C40.9379 16.94 40.9815 16.9694 41.0288 16.9917C41.0802 17.0168 41.1363 17.0416 41.1971 17.0659C41.2569 17.0898 41.3134 17.1209 41.3654 17.1585C41.4175 17.1966 41.4614 17.2445 41.4947 17.2995C41.5321 17.3669 41.5501 17.4432 41.5468 17.5201C41.5485 17.5945 41.536 17.6687 41.5099 17.7385C41.4875 17.7964 41.4509 17.8478 41.4034 17.8881C41.3546 17.9282 41.2975 17.9572 41.2362 17.9731C41.1646 17.9919 41.0908 18.0009 41.0168 18C40.9408 18.0011 40.8649 17.9928 40.7909 17.9753C40.7306 17.9612 40.6744 17.9332 40.627 17.8935C40.5813 17.8533 40.5469 17.8022 40.5271 17.745C40.5028 17.6725 40.4914 17.5964 40.4934 17.5201V17.4856C40.4934 17.4741 40.4941 17.4626 40.4956 17.4512H40.8539V17.5115C40.8539 17.5385 40.8561 17.5655 40.8604 17.5922C40.8641 17.6167 40.8722 17.6404 40.8844 17.6621C40.896 17.6823 40.9129 17.699 40.9332 17.7106C40.959 17.7239 40.9878 17.7302 41.0168 17.7289C41.0398 17.7302 41.0629 17.7267 41.0844 17.7185C41.106 17.7104 41.1255 17.6977 41.1417 17.6815C41.1727 17.6465 41.1887 17.601 41.1863 17.5545C41.1875 17.5305 41.1834 17.5066 41.1744 17.4843C41.1655 17.462 41.1517 17.4419 41.1342 17.4254C41.0955 17.3913 41.0519 17.363 41.0049 17.3414C40.9535 17.3171 40.8974 17.2934 40.8366 17.2704C40.7768 17.248 40.7202 17.218 40.6682 17.1811C40.6162 17.1439 40.5723 17.0967 40.5391 17.0423C40.5015 16.9753 40.4834 16.8993 40.4869 16.8228Z" fill="white"/>
</g>
<defs>
<clipPath id="clip0_553_2">
<rect width="62" height="18" fill="white"/>
</clipPath>
</defs>
</svg>
