<svg xmlns="http://www.w3.org/2000/svg" width="256" height="75" viewBox="0 0 256 75" fill="none">
    <g clip-path="url(#clip0_5_39)">
        <path d="M109.604 72.0974H48.9572" stroke="white" stroke-width="0.88093" stroke-miterlimit="10" stroke-linecap="round"/>
        <path d="M240.693 72.0974H180.046" stroke="white" stroke-width="0.88093" stroke-miterlimit="10" stroke-linecap="round"/>
        <path d="M7.39009 14.114C7.33587 14.2612 7.33062 14.422 7.37511 14.5724C7.567 15.1826 8.61992 15.3952 9.72689 15.0471C10.2021 14.907 10.6382 14.6581 11.0006 14.3203C13.6972 14.9594 16.3939 15.5985 19.0906 16.2375C19.5964 15.3214 20.7122 14.3369 22.2378 13.4429C22.3474 12.9278 22.5867 12.4493 22.9328 12.0524L10.9807 11.6787C10.8564 11.5258 10.703 11.399 10.5294 11.3057C10.3558 11.2125 10.1654 11.1545 9.9693 11.1353C11.5847 9.64295 13.2001 8.15067 14.8155 6.65842C14.5357 6.71918 14.256 6.77996 13.9762 6.84077C12.4229 8.20121 10.8696 9.56163 9.31624 10.922C9.31845 10.9273 9.3206 10.9327 9.32251 10.9382L9.33619 10.9748L9.34701 11.0136L9.35238 11.0335L9.35605 11.0541L9.36309 11.0963C9.36435 11.1107 9.3651 11.1253 9.36599 11.1401L9.36721 11.1624C9.36727 11.1699 9.36662 11.1774 9.36633 11.1849L9.36371 11.2306C9.36218 11.2463 9.35984 11.2619 9.35668 11.2773C9.35051 11.3081 9.34209 11.3385 9.3315 11.3682C9.29097 11.4802 9.22258 11.5801 9.13276 11.6585C9.0608 11.7199 8.97817 11.7675 8.88898 11.799C8.83062 11.82 8.77014 11.8344 8.70861 11.8421C8.68704 11.8447 8.67025 11.8459 8.65891 11.8466L8.64155 11.8474L8.65777 11.8414C8.66838 11.8373 8.68394 11.8313 8.70362 11.8231C8.75841 11.8002 8.81138 11.7732 8.86208 11.7423C8.93489 11.6984 9.00121 11.6445 9.05913 11.5823C9.06703 11.5736 9.07433 11.5643 9.08215 11.5553L9.09385 11.5416C9.09766 11.5369 9.10099 11.5318 9.10462 11.5269L9.12641 11.4973L9.14621 11.4656C9.17357 11.4217 9.19603 11.3749 9.21318 11.3261C9.22194 11.3017 9.22931 11.2767 9.23525 11.2514C9.23804 11.2389 9.24069 11.2271 9.24224 11.2149L9.24635 11.1779C9.24699 11.1717 9.24806 11.1656 9.24839 11.1595L9.24864 11.1412L9.24944 11.105L9.24693 11.0694L9.24581 11.0519L9.24312 11.0346L9.23813 11.0004L9.23061 10.9675C9.22653 10.9455 9.21871 10.925 9.21315 10.9045C9.2089 10.8922 9.20462 10.8803 9.2003 10.8687C9.1063 10.7238 8.96893 10.6124 8.80782 10.5503C8.6467 10.4882 8.47008 10.4786 8.30319 10.5229C8.09847 10.604 7.93232 10.7601 7.83848 10.9593C7.74465 11.1585 7.73017 11.386 7.798 11.5955C7.35174 11.8342 7.0066 12.2259 6.82595 12.6987C6.5849 12.8201 6.34385 12.9415 6.1028 13.0629C4.16859 14.8015 2.23438 16.5401 0.300171 18.2787L1.63416 18.4334L7.39009 14.114ZM22.2985 12.3627L21.7807 13.3557L11.0884 12.0074C14.8251 12.1258 18.5618 12.2442 22.2985 12.3627ZM12.1365 8.91503C13.3982 7.74995 14.4515 6.83844 14.4515 6.83844C14.4515 6.83844 13.4591 7.81585 12.1973 8.98093C10.9356 10.146 9.88236 11.0575 9.88236 11.0575C9.88236 11.0575 10.8748 10.0801 12.1365 8.91503ZM8.22144 10.6468C8.26301 10.6253 8.30683 10.6085 8.35211 10.5967C8.50779 10.5559 8.67293 10.5725 8.81739 10.6434C8.96186 10.7142 9.07603 10.8347 9.13905 10.9828C9.15742 11.0258 9.17093 11.0708 9.17935 11.1168C9.18255 11.1335 9.18467 11.1503 9.1857 11.1672C9.1857 11.1672 9.17448 11.1528 9.15394 11.1286C9.13338 11.1044 9.10326 11.0705 9.06455 11.0327C9.0204 10.9899 8.97321 10.9504 8.92335 10.9144C8.80649 10.8302 8.67628 10.7663 8.53819 10.7254C8.47922 10.708 8.41907 10.6949 8.3582 10.6861C8.30465 10.6787 8.25941 10.6756 8.22768 10.6742C8.1959 10.6728 8.17768 10.6727 8.17768 10.6727C8.19171 10.6631 8.20632 10.6545 8.22144 10.6468ZM5.14317 15.3986C5.60053 15.0488 6.04088 14.718 6.4451 14.418C6.64724 14.268 6.84032 14.1257 7.022 13.9927C7.11294 13.9262 7.20083 13.862 7.28566 13.8001C7.32809 13.7692 7.3697 13.739 7.4105 13.7093L7.47107 13.6654L7.50088 13.6438L7.50829 13.6384L7.51226 13.6357L7.5189 13.6312C7.60857 13.4113 7.68951 13.2126 7.76057 13.0384C7.83403 12.8606 7.89722 12.7076 7.94879 12.5827L8.111 12.1964C8.111 12.1964 8.06413 12.3376 7.97901 12.5941C7.93572 12.7221 7.88272 12.8788 7.82109 13.0611C7.78991 13.1521 7.7566 13.2494 7.72118 13.3529C7.70337 13.4045 7.68506 13.4576 7.66625 13.5122L7.63759 13.5951L7.62293 13.6374L7.60303 13.6936C7.44892 13.8172 7.28086 13.952 7.10113 14.0961C6.9251 14.2366 6.73722 14.3857 6.53953 14.5414C6.14411 14.853 5.70954 15.1913 5.25218 15.5411C3.25999 17.0647 1.59055 18.2285 1.59055 18.2285C1.59055 18.2285 3.15101 16.9221 5.14317 15.3986Z" fill="white"/>
        <path d="M53.4671 17.182C53.4213 17.2385 53.3716 17.2919 53.3186 17.3418C53.2687 17.3892 53.2163 17.4337 53.1614 17.4752C53.0618 17.5506 52.9559 17.6172 52.8448 17.6742C52.7498 17.7232 52.6519 17.7662 52.5516 17.8029C52.4083 17.8552 52.261 17.8959 52.1112 17.9246C52.0585 17.9347 52.0174 17.9411 51.9895 17.945L51.9469 17.9507L51.9847 17.9303C52.0095 17.9172 52.0459 17.8975 52.0921 17.8718C52.1846 17.8205 52.3172 17.745 52.4708 17.6427C52.5475 17.5914 52.6293 17.5332 52.7128 17.4675C52.8006 17.3988 52.8843 17.3249 52.9635 17.2463C53.1145 17.0992 53.2391 16.9272 53.3317 16.7379C53.4521 16.4593 53.4709 16.1472 53.3848 15.8561C53.1944 15.2504 52.5372 14.8759 51.7179 14.8214C53.605 12.5512 55.4921 10.281 57.3793 8.01074C57.0343 8.13487 56.6893 8.25902 56.3443 8.38319C54.6274 10.3407 52.9104 12.2982 51.1935 14.2557C51.0765 14.0717 50.9019 13.9317 50.6968 13.8577C50.4917 13.7837 50.2679 13.7798 50.0604 13.8467C49.8529 13.9135 49.6734 14.0474 49.5502 14.2272C49.427 14.4071 49.3669 14.6227 49.3794 14.8404C49.3831 14.8596 49.3873 14.8792 49.3924 14.8996C49.4062 14.9538 49.4249 15.0066 49.4484 15.0573C49.4754 15.1131 49.5088 15.1655 49.548 15.2134C49.5914 15.2643 49.6417 15.3088 49.6974 15.3456C49.7574 15.3844 49.8227 15.4145 49.8912 15.4348C49.9623 15.4556 50.0353 15.4692 50.1091 15.4754C50.1458 15.4786 50.182 15.481 50.2187 15.4822C50.2564 15.484 50.2903 15.4836 50.3241 15.4842C50.4456 15.482 50.5663 15.4628 50.6826 15.4274C50.7636 15.4029 50.8425 15.3716 50.9183 15.3339C50.9455 15.3203 50.9665 15.309 50.9807 15.3013L51.0023 15.2893L50.9854 15.3074C50.9741 15.3191 50.9571 15.3362 50.9341 15.357C50.8682 15.4164 50.7954 15.4678 50.7174 15.5101C50.6627 15.5397 50.6056 15.5649 50.5467 15.5852C50.4781 15.6084 50.4075 15.625 50.3358 15.6351C50.2976 15.6391 50.2579 15.6434 50.2201 15.645C50.1813 15.6473 50.1405 15.6478 50.0989 15.6468C50.0111 15.6448 49.9238 15.6313 49.8394 15.6066C49.7526 15.5807 49.671 15.5398 49.5983 15.4858C49.531 15.4351 49.4728 15.3733 49.4261 15.3031C49.3857 15.2401 49.3544 15.1716 49.3333 15.0998C49.3164 15.0386 49.3064 14.9757 49.3036 14.9122C49.3029 14.8948 49.3029 14.8782 49.303 14.862L36.8215 12.7068C36.825 12.5537 36.8035 12.4011 36.7579 12.2549C36.3888 11.081 34.4843 10.5454 31.9087 10.7014C30.963 9.68311 28.783 9.40162 26.5223 10.1125C24.2617 10.8233 22.6351 12.3017 22.4423 13.678C20.2409 15.0241 18.9856 16.5532 19.3548 17.7271C19.4027 17.878 19.4755 18.0197 19.5703 18.1464L10.5438 27.081C10.5533 27.0942 10.5628 27.1079 10.5722 27.1225C10.6062 27.1761 10.634 27.2334 10.6551 27.2933C10.6789 27.3643 10.6925 27.4383 10.6954 27.5131C10.6973 27.5974 10.6849 27.6814 10.6588 27.7615C10.63 27.8474 10.5865 27.9277 10.5301 27.9986C10.4751 28.0671 10.4112 28.1282 10.3403 28.18C10.3068 28.2048 10.273 28.2276 10.24 28.2479C10.2081 28.2682 10.173 28.2874 10.1394 28.3061C10.0748 28.3388 10.0074 28.3655 9.93788 28.3858C9.87796 28.4028 9.81676 28.4149 9.75489 28.4219C9.66671 28.4319 9.57766 28.4313 9.48961 28.4203C9.45875 28.4165 9.4351 28.4121 9.41913 28.409L9.39487 28.4039L9.41948 28.4013C9.43558 28.3995 9.4592 28.3969 9.48933 28.3923C9.57307 28.3799 9.65562 28.3604 9.73612 28.3342C9.85178 28.2966 9.96168 28.2433 10.0627 28.1755C10.09 28.1557 10.1181 28.1366 10.1479 28.1136C10.1773 28.0916 10.2057 28.0689 10.2339 28.0453C10.2908 27.998 10.3429 27.945 10.3894 27.8873C10.4339 27.8314 10.4703 27.7694 10.4973 27.7032C10.5219 27.6411 10.5376 27.5759 10.544 27.5094C10.5488 27.4476 10.5462 27.3855 10.5365 27.3243C10.5267 27.2693 10.5118 27.2153 10.4921 27.1629C10.4846 27.1434 10.4768 27.1248 10.4689 27.1069C10.3546 26.9213 10.1819 26.7788 9.9779 26.7018C9.77391 26.6249 9.55016 26.6178 9.34172 26.6817C9.13328 26.7457 8.95195 26.8769 8.82616 27.055C8.70037 27.2331 8.63723 27.4478 8.64664 27.6657C6.1184 27.043 3.59014 26.4204 1.06187 25.7977C0.707921 25.8933 0.353965 25.989 0 26.0846C2.8468 26.8663 5.69359 27.648 8.54036 28.4297C7.89963 28.9432 7.5751 29.6265 7.76554 30.2322C7.86148 30.5201 8.05549 30.7653 8.31371 30.9249C8.49805 31.0271 8.69863 31.0969 8.90665 31.131C9.01653 31.1502 9.12745 31.1629 9.23884 31.169C9.34493 31.1751 9.44529 31.1761 9.53752 31.1742C9.72204 31.1702 9.87394 31.1562 9.97916 31.1454C10.0318 31.14 10.0729 31.1352 10.1008 31.1318L10.1434 31.1269L10.1052 31.1466C10.0801 31.1594 10.0427 31.1777 9.99372 31.1995C9.85446 31.2618 9.7104 31.3127 9.56295 31.3518C9.45966 31.3791 9.35476 31.3999 9.24887 31.414C9.12511 31.4308 9.00013 31.4369 8.87533 31.4321C8.8066 31.4294 8.73806 31.4229 8.67005 31.4126C8.59802 31.402 8.52677 31.3866 8.45679 31.3665C8.40056 31.3507 8.34531 31.3317 8.29129 31.3095C8.22319 31.4913 8.21611 31.6904 8.27112 31.8766C8.50621 32.6242 9.79627 32.8846 11.1526 32.4581C12.5089 32.0317 13.4178 31.0799 13.1827 30.3322C13.1285 30.1674 13.0266 30.0224 12.8898 29.9157L21.8636 31.4188L23.2896 30.4572C20.1285 29.6609 16.9674 28.8645 13.8062 28.0682C17.6068 25.8834 23.3212 22.5985 23.3212 22.5985C23.211 22.6619 23.2311 23.5721 23.2215 23.7187C23.1958 24.111 23.1797 24.5039 23.1732 24.8972C23.1607 25.6517 23.1866 26.4046 23.2468 27.1568C23.3615 28.5889 23.594 30.009 23.9417 31.4029C23.8373 31.5998 23.7928 31.8229 23.8135 32.0448C23.8342 32.2666 23.9192 32.4776 24.0581 32.6518C24.1971 32.826 24.3839 32.9559 24.5956 33.0254C24.8073 33.095 25.0347 33.1012 25.2498 33.0432C25.465 32.9853 25.6586 32.8659 25.8068 32.6995C25.955 32.5331 26.0514 32.327 26.0842 32.1066C26.1169 31.8862 26.0845 31.661 25.9911 31.4587C25.8976 31.2565 25.7471 31.0859 25.5581 30.9679C25.5427 30.9602 25.5271 30.9526 25.5111 30.9454C25.4064 30.899 25.2954 30.8685 25.1817 30.8549C25.0854 30.8435 24.9881 30.8425 24.8915 30.8518C24.824 30.8582 24.757 30.8688 24.6908 30.8838C24.6433 30.8946 24.617 30.9028 24.617 30.9028C24.637 30.8865 24.658 30.8715 24.68 30.8579C24.8327 30.7623 25.0081 30.7091 25.1881 30.7036C25.261 30.7018 25.3339 30.7086 25.4052 30.7239L25.3859 30.6577C24.785 28.5827 24.6273 26.4227 24.5752 24.2724C24.5699 24.0571 24.4534 22.4901 24.8474 22.4766C25.2381 22.4631 25.6392 22.4352 26.0743 22.3839L26.4487 23.5745C26.4875 23.7012 26.5511 23.819 26.6357 23.921C26.7202 24.0231 26.8241 24.1074 26.9414 24.1692C27.0587 24.2309 27.187 24.2689 27.319 24.2809C27.451 24.2929 27.584 24.2786 27.7105 24.239L34.1582 22.2116C34.4179 22.1312 34.6357 21.9523 34.7651 21.7133C34.8945 21.4742 34.9251 21.194 34.8504 20.9327L34.4437 19.6395C34.6475 19.515 34.8723 19.3791 35.0779 19.2448C35.4487 19.3142 36.0921 20.4246 36.1989 20.5858C37.3867 22.3791 38.4888 24.2421 39.1835 26.2875C39.1909 26.3093 39.1959 26.3319 39.2032 26.3537C39.2525 26.3005 39.308 26.2533 39.3684 26.2132C39.5189 26.1147 39.6929 26.0581 39.8725 26.0493C39.8982 26.0478 39.924 26.048 39.9497 26.05C39.9497 26.05 39.9234 26.0584 39.8782 26.0767C39.8154 26.1023 39.7543 26.1319 39.6953 26.1654C39.6108 26.213 39.5316 26.2695 39.459 26.3339C39.3736 26.4102 39.3 26.4987 39.2407 26.5966C39.2317 26.6117 39.2233 26.6269 39.215 26.642C39.1276 26.8469 39.1018 27.0729 39.141 27.2922C39.1802 27.5115 39.2825 27.7146 39.4355 27.8765C39.5884 28.0385 39.7853 28.1522 40.002 28.2038C40.2188 28.2554 40.4458 28.2426 40.6553 28.167C40.8649 28.0914 41.0478 27.9562 41.1815 27.7781C41.3153 27.5999 41.3942 27.3866 41.4084 27.1643C41.4227 26.942 41.3717 26.7204 41.2618 26.5266C41.1518 26.3329 40.9877 26.1755 40.7896 26.0737C40.277 24.7316 39.6548 23.434 38.9294 22.194C38.5483 21.5427 38.1373 20.911 37.6966 20.2989C37.4663 19.9802 37.2282 19.6673 36.9825 19.3601C36.8907 19.2454 36.3864 18.4875 36.2597 18.4986C36.2597 18.4986 42.8256 17.922 47.1926 17.5386C45.0561 20.0007 42.9196 22.4628 40.7831 24.925L42.5027 24.8974L49.0015 18.5291C48.9504 18.6949 48.9498 18.8722 48.9997 19.0384C49.2348 19.786 50.5249 20.0464 51.8812 19.6199C53.2374 19.1934 54.1463 18.2416 53.9112 17.494C53.8498 17.3098 53.7301 17.1506 53.5702 17.0404C53.5386 17.0895 53.5042 17.1368 53.4671 17.182ZM53.8347 11.3773C55.2313 9.74347 56.4317 8.47724 56.4317 8.47724C56.4317 8.47724 55.3677 9.86001 53.9711 11.4939C52.5745 13.1277 51.3741 14.3939 51.3741 14.3939C51.3741 14.3939 52.4381 13.0111 53.8347 11.3773ZM50.0873 13.996C50.0643 14.0169 50.0324 14.048 49.9963 14.0868C49.8177 14.2821 49.6878 14.5168 49.6173 14.7718C49.6036 14.823 49.5942 14.8666 49.5887 14.8971L49.5799 14.9454L49.5747 14.9337C49.5714 14.926 49.566 14.9146 49.5608 14.8996C49.5451 14.8567 49.5341 14.8123 49.5277 14.7672C49.518 14.699 49.5182 14.6298 49.5283 14.5617C49.5527 14.3906 49.639 14.2345 49.771 14.123C49.8233 14.0783 49.8819 14.0414 49.9448 14.0134C49.9864 13.9948 50.0299 13.9806 50.0745 13.971C50.09 13.9674 50.1026 13.9661 50.1108 13.9647L50.1235 13.9629L50.0873 13.996ZM9.3679 26.8074C9.37545 26.8038 9.38652 26.7978 9.4013 26.7919C9.44334 26.7741 9.48713 26.7609 9.53194 26.7524C9.59954 26.7393 9.66867 26.7361 9.73719 26.7428C9.90923 26.7587 10.0694 26.8373 10.1873 26.9637C10.2345 27.0137 10.2743 27.0703 10.3053 27.1318C10.326 27.1725 10.3423 27.2152 10.354 27.2593C10.3584 27.2746 10.3604 27.2871 10.3622 27.2952L10.3645 27.3078L10.3297 27.2733C10.3077 27.2514 10.2751 27.221 10.2345 27.1869C10.0307 27.0181 9.78991 26.8999 9.53172 26.8421C9.47989 26.8309 9.43597 26.8237 9.40513 26.8196L9.35651 26.8132L9.3679 26.8074ZM4.78829 26.9904C2.70794 26.4499 1.04408 25.9248 1.04408 25.9248C1.04408 25.9248 2.75306 26.2762 4.83338 26.8168C6.91372 27.3573 8.57759 27.8824 8.57759 27.8824C8.57759 27.8824 6.8686 27.531 4.78829 26.9904ZM14.7741 28.4515C15.4411 28.6126 16.1698 28.7919 16.9302 28.984C20.2693 29.8277 22.9542 30.5986 22.9542 30.5986C22.9542 30.5986 20.2253 30.0016 16.8862 29.158C16.1259 28.9659 15.3995 28.7775 14.736 28.6025C14.4044 28.5142 14.0884 28.4301 13.7915 28.351C13.4971 28.2712 13.2216 28.1966 12.9688 28.1281C12.6332 28.1134 12.3301 28.1002 12.0642 28.0886C11.7967 28.0759 11.5667 28.065 11.3788 28.056L10.7964 28.0259C10.7964 28.0259 11.0035 28.025 11.3796 28.0234C11.5677 28.0234 11.798 28.0233 12.0658 28.0233C12.3353 28.0243 12.6425 28.0254 12.9826 28.0267C13.241 28.0874 13.5226 28.1535 13.8236 28.2241C14.1223 28.2956 14.4404 28.3717 14.7741 28.4515ZM19.687 20.0628L11.029 27.0673L19.3511 18.9944L19.687 20.0628ZM26.5968 10.3656C28.27 9.85036 30.0772 9.99668 31.6458 10.7744C30.0366 10.4735 28.3781 10.5729 26.8164 11.064C25.2547 11.555 23.8378 12.4226 22.6904 13.5903C23.5316 12.0549 24.9298 10.9007 26.5968 10.3656ZM23.0416 14.6942C23.1086 14.708 23.2075 14.7278 23.3349 14.7502C23.6921 14.8133 24.0526 14.8568 24.4146 14.8803C24.6424 14.8954 24.8916 14.904 25.1581 14.9006C25.4246 14.8971 25.7084 14.8843 26.0045 14.8536C26.3006 14.8231 26.6093 14.7789 26.9252 14.7145C27.2509 14.648 27.5729 14.5648 27.89 14.4652C28.5037 14.2722 29.0961 14.0169 29.6578 13.7032C30.1209 13.4434 30.5623 13.1464 30.9773 12.8151C31.2608 12.5887 31.5318 12.3471 31.7892 12.0914C31.881 12.0003 31.9508 11.9276 31.9979 11.8779L32.0696 11.802L32.0562 11.8249C32.0473 11.8401 32.0341 11.8627 32.0162 11.892C31.9807 11.9507 31.9272 12.0367 31.854 12.145C31.6458 12.4519 31.4138 12.7419 31.1602 13.0125C30.7806 13.4179 30.3565 13.7793 29.896 14.0898C29.622 14.2737 29.3359 14.4388 29.0396 14.5839C28.7208 14.7404 28.3905 14.8724 28.0516 14.9786C27.1113 15.2734 26.1204 15.3719 25.1404 15.268C24.8841 15.2414 24.6293 15.201 24.3773 15.1468C24.0145 15.07 23.6583 14.9644 23.3122 14.8312C23.1903 14.7841 23.0972 14.7441 23.0345 14.7162C23.0031 14.7024 22.9794 14.6914 22.9634 14.6841L22.9393 14.6729L23.0416 14.6942ZM20.0873 18.229C20.2073 18.2599 20.3846 18.304 20.6138 18.3548C20.843 18.4056 21.1243 18.463 21.4522 18.5185C21.7802 18.5735 22.1548 18.6259 22.5699 18.6672C22.7773 18.6886 22.9951 18.7046 23.2219 18.7192L23.3937 18.7279C23.4516 18.7304 23.5099 18.7346 23.5689 18.7358C23.6869 18.739 23.8069 18.7447 23.9291 18.7452C23.9902 18.746 24.0518 18.7469 24.1138 18.7477C24.1759 18.7474 24.2385 18.7471 24.3016 18.7468C24.4277 18.7473 24.5558 18.7427 24.6857 18.7397C24.7506 18.7388 24.8159 18.735 24.8817 18.7322L25.0805 18.7232C25.147 18.7188 25.2141 18.7144 25.2816 18.7099C25.3153 18.7077 25.3491 18.7055 25.3831 18.7033C25.417 18.7013 25.451 18.6976 25.4851 18.6949C25.5533 18.689 25.6219 18.683 25.6909 18.6771L25.7427 18.6726L25.7946 18.6669L25.8988 18.6555C25.9684 18.6477 26.0385 18.6411 26.1088 18.6323C26.179 18.6231 26.2496 18.6139 26.3205 18.6046L26.4272 18.5908L26.5341 18.5743C26.6056 18.5634 26.6773 18.5524 26.7495 18.5413C26.8216 18.5302 26.8936 18.5162 26.9662 18.5037C27.0024 18.4973 27.0388 18.4909 27.0752 18.4845C27.1116 18.4782 27.1482 18.4718 27.1845 18.4641C27.7866 18.3477 28.3816 18.1973 28.9667 18.0137C29.5519 17.8305 30.1257 17.6126 30.685 17.3612C31.207 17.1271 31.7162 16.8654 32.2104 16.5772C32.2403 16.5604 32.2695 16.5428 32.2985 16.5251C32.3277 16.5075 32.3567 16.49 32.3856 16.4725C32.4435 16.4375 32.501 16.4028 32.5582 16.3683C32.6146 16.3326 32.6706 16.297 32.7262 16.2618C32.7816 16.2262 32.8377 16.1924 32.8914 16.1558L33.0526 16.0488C33.0793 16.0311 33.1059 16.0134 33.1323 15.9958L33.2103 15.9416C33.2622 15.9057 33.3136 15.8701 33.3646 15.8347C33.3903 15.8172 33.4155 15.7992 33.4403 15.781L33.5148 15.727C33.9111 15.441 34.2683 15.1567 34.5857 14.886C35.0881 14.4567 35.5647 13.9979 36.0127 13.5121C36.1719 13.3395 36.2922 13.2019 36.373 13.108L36.4959 12.9643L36.4696 13.0045C36.4521 13.0311 36.4263 13.0707 36.3914 13.1221C36.3221 13.225 36.2182 13.3759 36.0775 13.5657C35.6787 14.1027 35.2412 14.6099 34.7686 15.0834C34.4687 15.3838 34.1261 15.6999 33.7396 16.0182C33.7155 16.0382 33.6912 16.0582 33.6669 16.0783C33.6426 16.0985 33.618 16.1185 33.5929 16.138L33.4415 16.2571C33.4161 16.2771 33.3905 16.2972 33.3648 16.3173L33.2863 16.3763C33.2336 16.4158 33.1805 16.4554 33.127 16.4954C33.0739 16.536 33.0183 16.5738 32.9633 16.6133C32.908 16.6525 32.8523 16.692 32.7962 16.7317L32.624 16.8476L32.5369 16.906C32.5078 16.9256 32.4785 16.9451 32.4486 16.9638C31.9517 17.2847 31.4349 17.5736 30.9013 17.8287C30.3277 18.1035 29.7352 18.3369 29.1283 18.5271C28.5215 18.7174 27.9023 18.8657 27.2752 18.9711C27.2373 18.9782 27.1994 18.9838 27.1615 18.9894L27.048 19.0063C26.9726 19.0172 26.8977 19.0295 26.8227 19.0389C26.7477 19.048 26.6731 19.057 26.5989 19.066L26.4878 19.0793C26.4508 19.0828 26.4139 19.0863 26.3771 19.0898C26.3034 19.0967 26.2301 19.1036 26.1573 19.1104C26.0844 19.1168 26.0117 19.1208 25.9395 19.126L25.8316 19.1333L25.7779 19.1368L25.7243 19.1392L25.5114 19.1482C25.4761 19.1494 25.441 19.1516 25.4059 19.1521C25.3708 19.1527 25.3359 19.1533 25.3011 19.1539C25.2314 19.1551 25.1622 19.1562 25.0935 19.1574C25.0247 19.157 24.9565 19.1566 24.8887 19.1561C24.8209 19.1555 24.7537 19.1558 24.6869 19.1531C24.5534 19.1488 24.4219 19.146 24.2926 19.1378L24.1002 19.1271C24.0368 19.1223 23.9738 19.1175 23.9114 19.1127C23.7865 19.1042 23.6641 19.0903 23.544 19.0788C23.4839 19.0734 23.4247 19.0651 23.3659 19.0584C23.3071 19.0512 23.2489 19.0446 23.1913 19.037C22.9614 19.0054 22.7413 18.9722 22.5326 18.9336C22.1147 18.8581 21.7409 18.7715 21.416 18.6848C21.0911 18.5978 20.8149 18.5113 20.5912 18.4358C20.3674 18.3604 20.1959 18.296 20.0802 18.251C20.0222 18.2288 19.9784 18.211 19.9488 18.1993L19.9042 18.1814L20.0873 18.229ZM30.8315 22.8234C28.8816 23.4365 27.2741 23.848 27.2741 23.848C27.2741 23.848 28.8278 23.2654 30.7777 22.6523C32.7276 22.0391 34.3352 21.6277 34.3352 21.6277C34.3352 21.6277 32.7814 22.2103 30.8315 22.8234ZM30.6476 22.2385C28.6977 22.8516 27.0902 23.2631 27.0902 23.2631C27.0902 23.2631 28.6439 22.6805 30.5938 22.0674C32.5437 21.4543 34.1513 21.0428 34.1513 21.0428C34.1513 21.0428 32.5975 21.6254 30.6476 22.2385ZM30.4413 21.5823C28.4914 22.1955 26.8838 22.6069 26.8838 22.6069C26.8838 22.6069 28.4376 22.0243 30.3875 21.4112C32.3373 20.7981 33.9449 20.3866 33.9449 20.3866C33.9449 20.3866 32.3912 20.9692 30.4413 21.5823ZM37.3698 15.7982C37.3518 15.8243 37.3252 15.8634 37.2893 15.9139C37.2181 16.0154 37.1115 16.1641 36.9678 16.351C36.5606 16.8795 36.1166 17.3787 35.6391 17.8447C35.3363 18.1402 34.9913 18.451 34.6032 18.764L34.5301 18.823C34.5058 18.8429 34.4811 18.8626 34.4559 18.8817C34.4057 18.9204 34.3551 18.9595 34.304 18.9988L34.2271 19.058L34.1484 19.116C34.0956 19.1548 34.0424 19.1938 33.9888 19.2331C33.9356 19.2729 33.8799 19.3101 33.8248 19.349C33.7694 19.3875 33.7137 19.4263 33.6576 19.4654C33.6005 19.5032 33.5431 19.5411 33.4853 19.5794L33.3982 19.6368C33.3691 19.6561 33.3399 19.6753 33.3099 19.6936C32.8135 20.0091 32.2979 20.2934 31.7662 20.545C31.195 20.8159 30.6057 21.0468 30.0024 21.2358C29.3992 21.425 28.7841 21.5736 28.1611 21.6809C28.1235 21.688 28.0858 21.6938 28.0481 21.6995L27.9354 21.7168C27.8604 21.728 27.786 21.7405 27.7115 21.7502C27.637 21.7596 27.5629 21.769 27.4891 21.7783L27.3788 21.7922L27.2687 21.8032C27.1955 21.8105 27.1226 21.8178 27.0502 21.825C26.9778 21.8318 26.9055 21.8362 26.8338 21.8418L26.7265 21.8498L26.6731 21.8537L26.6197 21.8565C26.5487 21.86 26.4782 21.8635 26.408 21.8669C26.3729 21.8684 26.338 21.8708 26.3031 21.8715L26.1989 21.8742C26.1296 21.8759 26.0607 21.8776 25.9923 21.8793C25.924 21.8795 25.856 21.8796 25.7886 21.8798C25.7212 21.8797 25.6542 21.8806 25.5877 21.8785C25.4548 21.8754 25.3239 21.8738 25.1951 21.8669C25.1307 21.864 25.0669 21.8611 25.0036 21.8582C24.9403 21.854 24.8776 21.8498 24.8154 21.8457C24.6909 21.8386 24.569 21.826 24.4492 21.8159C24.3893 21.8112 24.3302 21.8036 24.2716 21.7976C24.213 21.7911 24.1549 21.7847 24.0975 21.7783C23.8681 21.7496 23.6484 21.7192 23.4398 21.6835C23.0225 21.6137 22.6485 21.5328 22.3231 21.4514C21.9977 21.3696 21.7207 21.288 21.496 21.2166C21.2713 21.1452 21.0988 21.0842 20.9824 21.0416C20.9241 21.0206 20.88 21.0037 20.8502 20.9926L20.8053 20.9757C20.8053 20.9757 20.8679 20.9933 20.9871 21.0269C21.1064 21.0602 21.2828 21.1077 21.5111 21.1626C21.7394 21.2175 22.0198 21.2797 22.3472 21.3404C22.6747 21.4008 23.0492 21.4589 23.4647 21.5058C23.6724 21.5301 23.8906 21.549 24.1178 21.5664C24.1747 21.57 24.2321 21.5736 24.2902 21.5773C24.3482 21.5805 24.4066 21.5853 24.4658 21.5873C24.5842 21.5918 24.7045 21.5989 24.8272 21.6007C24.8885 21.6022 24.9503 21.6037 25.0126 21.6052L25.2011 21.6062C25.3278 21.608 25.4564 21.6047 25.5869 21.6029C25.6521 21.6026 25.7178 21.5993 25.7839 21.5971C25.8501 21.5947 25.9166 21.5922 25.9837 21.5898C26.0506 21.5859 26.118 21.5821 26.1859 21.5782L26.2879 21.5724C26.3221 21.5706 26.3562 21.5672 26.3905 21.5647C26.4591 21.5593 26.5281 21.5538 26.5975 21.5484L26.6496 21.5442L26.7018 21.5389L26.8066 21.5282C26.8766 21.5208 26.9472 21.5147 27.0179 21.5063C27.0885 21.4975 27.1595 21.4886 27.231 21.4797L27.3383 21.4664L27.4459 21.4505C27.5178 21.4399 27.5901 21.4292 27.6627 21.4185C27.7353 21.4076 27.8078 21.3939 27.8808 21.3818L27.9906 21.3629C28.0273 21.3567 28.0641 21.3505 28.1007 21.3429C28.707 21.2283 29.306 21.0783 29.8947 20.8936C30.4835 20.7092 31.0604 20.4887 31.6221 20.2334C32.146 19.9958 32.6565 19.7295 33.1511 19.4359C33.181 19.4188 33.2103 19.4009 33.2393 19.3828L33.3264 19.3293C33.3843 19.2937 33.4418 19.2583 33.4989 19.2232C33.5552 19.1867 33.6112 19.1506 33.6667 19.1146C33.7221 19.0784 33.7781 19.0439 33.8317 19.0066C33.8857 18.97 33.9394 18.9337 33.9926 18.8976L34.0721 18.8437C34.0981 18.8252 34.1241 18.8068 34.1499 18.7885C34.2016 18.7519 34.2528 18.7155 34.3037 18.6795C34.3293 18.6617 34.3544 18.6433 34.3791 18.6248L34.4533 18.5698C34.848 18.2784 35.2028 17.9888 35.5172 17.7131C36.0145 17.2765 36.4846 16.8097 36.9246 16.3153C37.0807 16.1398 37.1982 16 37.2771 15.9046C37.3164 15.8568 37.3464 15.8203 37.3666 15.7958L37.397 15.7586L37.3698 15.7982ZM37.8486 14.3521L37.5126 13.2837L48.9572 15.1412L37.8486 14.3521ZM49.1763 16.1395C49.0274 16.2543 48.845 16.3949 48.6329 16.5584C48.4215 16.7201 48.1805 16.9044 47.9137 17.1085C47.7456 17.3093 47.5625 17.5282 47.3666 17.7622C47.1684 17.9968 46.9574 18.2467 46.7361 18.5088C46.2921 19.0321 45.8042 19.6022 45.2907 20.1949C43.0352 22.7977 41.1391 24.849 41.1391 24.849C41.1391 24.849 42.8997 22.6802 45.1551 20.0774C45.6686 19.4848 46.1636 18.9207 46.6184 18.4068C46.8463 18.1504 47.0636 17.906 47.2677 17.6764C47.4741 17.4462 47.6672 17.2309 47.8443 17.0333L48.5942 16.5057C48.8139 16.3525 49.0028 16.2207 49.157 16.1131L49.6368 15.7815C49.6368 15.7815 49.4733 15.9086 49.1763 16.1395Z" fill="white"/>
        <path d="M40.1308 2.51254L30.5433 9.65917C31.0543 9.78649 31.5244 10.042 31.9091 10.4016C33.6717 10.2616 35.1501 10.4305 36.0893 10.8923C37.935 8.82489 39.7806 6.75751 41.6263 4.69015C42.1168 4.7598 42.6168 4.7143 43.0867 4.55727C44.1937 4.20919 44.9355 3.43232 44.7436 2.82209C44.694 2.67326 44.5977 2.54442 44.469 2.45471L51.661 2.70273L52.6664 1.81244C50.0853 1.49365 47.5042 1.17486 44.9231 0.856087C44.6559 0.894457 44.3888 0.932844 44.1216 0.971249C43.7029 0.686922 43.1957 0.563213 42.6931 0.622834C42.6288 0.412221 42.4868 0.233978 42.2958 0.124318C42.1049 0.0146586 41.8793 -0.0181973 41.665 0.0324381C41.5028 0.0916131 41.3635 0.200549 41.2669 0.343672C41.1703 0.486795 41.1214 0.656787 41.1272 0.829356C41.1303 0.841422 41.1336 0.853658 41.1371 0.866061C41.1443 0.886082 41.1496 0.907321 41.1589 0.927724L41.1716 0.95907L41.187 0.989924L41.1947 1.00563L41.2039 1.0207L41.2222 1.05129L41.2435 1.08052L41.2542 1.09539C41.258 1.10018 41.2623 1.1046 41.2664 1.10926L41.2909 1.13728C41.2992 1.14639 41.3082 1.15461 41.3176 1.1632C41.3369 1.18056 41.3573 1.1968 41.3785 1.21184C41.4204 1.24207 41.4656 1.26758 41.5132 1.2879L41.5476 1.3026L41.5824 1.31442C41.5881 1.31632 41.5938 1.31861 41.5996 1.32025L41.617 1.32477C41.6286 1.32769 41.6399 1.33117 41.6514 1.33376C41.7345 1.35164 41.8197 1.35786 41.9045 1.35221C41.9638 1.34855 42.0227 1.3404 42.0807 1.32784C42.1016 1.32326 42.1178 1.31929 42.1288 1.31655L42.1455 1.31219L42.1309 1.32151C42.1212 1.32745 42.1067 1.33601 42.0875 1.34625C42.0326 1.37515 41.9748 1.39792 41.9149 1.41412C41.8238 1.43934 41.7287 1.44756 41.6346 1.43838C41.5161 1.42556 41.4028 1.38277 41.3055 1.31407C41.2798 1.29582 41.2555 1.27572 41.2328 1.25393C41.2214 1.24309 41.2105 1.23166 41.2003 1.21968L41.172 1.18371C41.1675 1.17768 41.1626 1.1719 41.1584 1.16574L41.1467 1.14677C41.1389 1.13415 41.1312 1.12171 41.124 1.10923L41.1056 1.07061L41.0968 1.05161L41.0899 1.03218L41.0765 0.994118L41.0668 0.95631C41.0652 0.950702 41.0639 0.945086 41.0627 0.939463C39.0103 0.712823 36.958 0.48617 34.9056 0.259517L34.113 0.590287C36.2917 0.889562 38.4705 1.18884 40.6492 1.4881C40.4994 1.61614 40.3764 1.77259 40.2874 1.94843C40.1985 2.12427 40.1452 2.316 40.1308 2.51254ZM32.2376 10.0677L31.2446 9.54964C34.2411 7.31406 37.2376 5.07847 40.2341 2.84287L32.2376 10.0677ZM43.1345 1.51877C43.2483 1.59167 43.3876 1.68094 43.5496 1.78472C43.7076 1.88696 43.8877 2.00354 44.0871 2.13257L44.0951 2.13243L44.0999 2.13242L44.109 2.13257L44.1459 2.1332L44.2207 2.1346C44.2711 2.13555 44.3225 2.13652 44.375 2.13753C44.4799 2.1398 44.5887 2.14214 44.7014 2.14454C44.9265 2.14972 45.1663 2.15589 45.4179 2.16324C45.9211 2.17788 46.4715 2.19715 47.0468 2.22226C49.5523 2.33156 51.5796 2.50977 51.5796 2.50977C51.5796 2.50977 49.5445 2.51077 47.0389 2.40149C46.4637 2.37637 45.9137 2.34766 45.4111 2.31847C45.1598 2.30384 44.9204 2.28911 44.6957 2.27468C44.4658 2.25932 44.2509 2.24501 44.0538 2.23186L44.0053 2.19711L43.9691 2.17083L43.8981 2.11928L43.7619 2.02003C43.6737 1.95554 43.5908 1.89484 43.513 1.83794C43.3581 1.72376 43.225 1.62554 43.1162 1.54534C42.8996 1.38371 42.7803 1.29474 42.7803 1.29474C42.7803 1.29474 42.9061 1.37428 43.1345 1.51877ZM41.7133 0.197783C41.6684 0.23978 41.6266 0.284965 41.5882 0.33299C41.4984 0.445569 41.4282 0.572473 41.3805 0.708378C41.3602 0.766418 41.3441 0.825849 41.3324 0.886206C41.3223 0.939326 41.317 0.984382 41.314 1.016C41.311 1.04766 41.3101 1.06584 41.3101 1.06584C41.3012 1.05137 41.2933 1.03634 41.2864 1.02087C41.267 0.9783 41.2524 0.933704 41.2428 0.887909C41.2097 0.730412 41.2344 0.566295 41.3123 0.425489C41.3902 0.284682 41.5162 0.176574 41.6671 0.120877C41.711 0.104671 41.7566 0.0933918 41.803 0.0872542C41.8198 0.0848973 41.8367 0.0836118 41.8537 0.0834009C41.8537 0.0834009 41.8388 0.0938848 41.8135 0.113233C41.7883 0.132581 41.753 0.160992 41.7133 0.197783ZM37.5892 0.996546C35.8877 0.763214 34.5145 0.529655 34.5145 0.529655C34.5145 0.529655 35.8999 0.674355 37.6014 0.907695C39.3028 1.14104 40.676 1.3746 40.676 1.3746C40.676 1.3746 39.2906 1.22985 37.5892 0.996546Z" fill="white"/>
        <path d="M26.2469 30.9864L38.8184 26.8283L40.1385 30.818L32.792 33.2482L34.7818 39.2649L41.3366 37.0966L42.5725 40.8332L36.0176 43.0015L39.3275 53.0079L34.1024 54.7364L26.2469 30.9864Z" fill="white"/>
        <path d="M49.3557 32.3433H57.3273C60.1068 32.3433 62.1527 32.9493 63.465 34.1613C64.7763 35.3734 65.4322 37.3245 65.4325 40.0144C65.4325 41.905 65.138 43.4394 64.5489 44.6177C63.9511 45.8038 62.9172 46.7122 61.664 47.1523L65.1654 57.3586H59.9287L56.6605 47.8859H54.8595V57.3586H49.3557V32.3433ZM57.1938 43.6838C57.8537 43.722 58.5053 43.5206 59.0287 43.1166C59.4629 42.7579 59.7386 42.2427 59.7961 41.6824C59.9065 40.6403 59.9065 39.5894 59.7961 38.5472C59.7545 38.0434 59.5357 37.5706 59.1787 37.2127C58.7496 36.8089 58.1836 36.5826 57.5944 36.5792C57.4853 36.5524 57.3728 36.5412 57.2605 36.5459H54.8595V43.6838H57.1938Z" fill="white"/>
        <path d="M67.0004 32.3433H80.2426V36.5459H72.5042V42.8829H79.4084V46.8189H72.5042V53.156H80.2426V57.3586H67.0004V32.3433Z" fill="white"/>
        <path d="M81.6759 39.4478C81.6484 38.2935 81.8409 37.1444 82.243 36.062C82.5864 35.1654 83.1483 34.3687 83.8776 33.7442C84.6277 33.1239 85.5038 32.6743 86.4451 32.4265C87.5441 32.1363 88.6774 31.9961 89.814 32.0099C90.9819 31.9937 92.1473 32.1224 93.2835 32.3931C94.2108 32.6121 95.0735 33.0464 95.8017 33.661C96.5017 34.284 97.0299 35.0765 97.3356 35.9623C97.7079 37.0856 97.8827 38.2649 97.8524 39.4478C97.8524 39.6259 97.8466 39.8035 97.836 39.9816C97.8243 40.1596 97.8076 40.3374 97.7856 40.5148H92.2828C92.3094 40.3664 92.3204 40.2155 92.3157 40.0648V39.5809C92.3174 39.1564 92.2841 38.7326 92.216 38.3136C92.1577 37.9389 92.0335 37.5775 91.8492 37.2461C91.6666 36.9308 91.4012 36.6714 91.0818 36.4961C90.6907 36.2937 90.254 36.196 89.814 36.2125C89.1317 36.1864 88.4646 36.4186 87.9461 36.8629C87.6977 37.0932 87.5032 37.3756 87.3764 37.6897C87.2496 38.0039 87.1936 38.3421 87.2126 38.6804C87.196 39.0567 87.2587 39.4323 87.3966 39.7828C87.5345 40.1333 87.7444 40.451 88.0129 40.7152C88.6015 41.2645 89.2709 41.7201 89.9978 42.0662C90.7866 42.4552 91.6482 42.8388 92.5828 43.2169C93.5005 43.586 94.3688 44.0676 95.1677 44.6507C95.9671 45.2405 96.6415 45.9831 97.1517 46.8354C97.6859 47.7142 97.953 48.8538 97.953 50.2541C97.9801 51.4085 97.7876 52.5574 97.3859 53.6399C97.0419 54.5363 96.4801 55.3328 95.7513 55.9578C95.001 56.5783 94.1245 57.0279 93.1828 57.2754C92.0838 57.5657 90.9506 57.7058 89.8139 57.6921C88.6464 57.7083 87.4813 57.5796 86.3454 57.3088C85.4179 57.0903 84.5552 56.6559 83.8272 56.041C83.1264 55.4187 82.598 54.626 82.2933 53.7396C81.9205 52.6165 81.7456 51.4371 81.7765 50.2541V49.7204C81.7764 49.5421 81.7873 49.364 81.8094 49.1871H87.3132V50.1211C87.3127 50.5399 87.346 50.958 87.4129 51.3714C87.4688 51.752 87.5931 52.1194 87.7796 52.4558C87.9583 52.7683 88.2172 53.0273 88.5297 53.2059C88.9252 53.4121 89.3683 53.51 89.8139 53.4894C90.1674 53.5104 90.5213 53.4558 90.8521 53.3293C91.1828 53.2028 91.4828 53.0074 91.7321 52.7559C92.2075 52.2139 92.453 51.5079 92.4163 50.7879C92.435 50.4163 92.3731 50.045 92.2348 49.6997C92.0964 49.3543 91.885 49.0429 91.615 48.787C91.0212 48.258 90.3527 47.8196 89.631 47.4858C88.8413 47.1079 87.9797 46.7411 87.0461 46.3854C86.1279 46.0383 85.2589 45.5729 84.4611 45.001C83.6624 44.4237 82.9874 43.6922 82.4762 42.8496C81.943 41.9825 81.6762 40.8485 81.6759 39.4478Z" fill="white"/>
        <path d="M99.787 32.3433H105.291L110.127 48.3863V32.3433H115.631V57.3586H110.127L105.291 41.2822V57.3586H99.787V32.3433Z" fill="white"/>
        <path d="M117.697 38.7471C117.669 37.6974 117.856 36.6532 118.247 35.6787C118.59 34.8654 119.128 34.1494 119.814 33.5941C120.548 33.0222 121.395 32.6128 122.3 32.3931C124.471 31.8821 126.732 31.8821 128.904 32.3931C129.812 32.6152 130.664 33.0243 131.406 33.5941C132.1 34.1455 132.644 34.8622 132.99 35.6787C133.381 36.6533 133.568 37.6975 133.539 38.7471V50.9214C133.567 51.9764 133.38 53.0259 132.99 54.0067C132.648 54.8297 132.103 55.5526 131.406 56.1077C130.664 56.678 129.812 57.0871 128.904 57.3088C126.732 57.8197 124.471 57.8197 122.3 57.3088C121.393 57.0884 120.544 56.673 119.814 56.0913C119.13 55.5275 118.592 54.8064 118.247 53.9897C117.856 53.0153 117.669 51.971 117.697 50.9214V38.7471ZM123.201 51.2548C123.186 51.8409 123.402 52.4094 123.801 52.839C124.2 53.2726 124.801 53.4894 125.602 53.4894C126.424 53.4894 127.036 53.2671 127.436 52.8226C127.829 52.3962 128.044 51.835 128.037 51.2548V38.4137C128.046 37.8381 127.831 37.2816 127.436 36.8628C127.036 36.4293 126.425 36.2125 125.602 36.2125C124.801 36.2125 124.201 36.4293 123.801 36.8628C123.406 37.2817 123.191 37.8383 123.201 38.4137V51.2548Z" fill="white"/>
        <path d="M147.352 32.6142H152.796V43.0397H157.579V32.6142H163.023V57.3586H157.579V46.9331H152.796V57.3586H147.352V32.6142Z" fill="white"/>
        <path d="M165.068 32.6142H178.166V36.7714H170.512V43.0397H177.341V46.9331H170.512V53.2015H178.166V57.3586H165.068V32.6142Z" fill="white"/>
        <path d="M180.046 32.6142H185.49V57.3586H180.046V32.6142Z" fill="white"/>
        <path d="M187.669 38.9489C187.641 37.9106 187.826 36.8775 188.213 35.9134C188.552 35.109 189.085 34.4007 189.763 33.8511C190.489 33.2855 191.327 32.8808 192.221 32.6636C194.369 32.1578 196.606 32.1578 198.754 32.6636C199.652 32.8832 200.495 33.2876 201.228 33.8511C201.915 34.3968 202.453 35.1059 202.795 35.9134C203.182 36.8774 203.368 37.9105 203.34 38.9489V41.3572H197.896V38.6189C197.906 38.0495 197.692 37.499 197.302 37.0845C196.906 36.6557 196.301 36.4414 195.487 36.4414C194.696 36.4414 194.102 36.6557 193.706 37.0845C193.316 37.4991 193.103 38.0497 193.113 38.6189V51.3211C193.099 51.9007 193.311 52.4629 193.706 52.8879C194.102 53.3171 194.695 53.5317 195.487 53.5315C196.301 53.5315 196.906 53.3115 197.302 52.8715C197.691 52.4497 197.904 51.8949 197.896 51.3211V49.5723H195.982V45.646H203.34V50.9911C203.367 52.0347 203.181 53.0729 202.795 54.043C202.457 54.857 201.918 55.5721 201.228 56.1213C200.495 56.6855 199.652 57.0901 198.754 57.3093C196.606 57.8151 194.369 57.8151 192.221 57.3093C191.324 57.0915 190.485 56.6805 189.763 56.1048C189.086 55.5472 188.554 54.8342 188.213 54.0265C187.826 53.0625 187.641 52.0294 187.669 50.9911V38.9489Z" fill="white"/>
        <path d="M205.319 32.6142H210.763V43.0397H215.547V32.6142H220.991V57.3586H215.547V46.9331H210.763V57.3586H205.319V32.6142Z" fill="white"/>
        <path d="M238.641 32.6142V36.7714H233.363V57.3586H227.919V36.7714H222.64V32.6142H238.641Z" fill="white"/>
        <path d="M239.895 39.6413C239.868 38.4996 240.059 37.3632 240.457 36.2928C240.796 35.406 241.352 34.6178 242.073 33.9996C242.815 33.386 243.682 32.9414 244.613 32.6965C245.7 32.4093 246.821 32.2706 247.945 32.2842C249.101 32.2681 250.253 32.3955 251.377 32.6636C252.294 32.8801 253.148 33.3096 253.868 33.9174C254.561 34.5335 255.083 35.3173 255.386 36.1936C255.754 37.3048 255.927 38.4712 255.897 39.6413C255.897 39.818 255.891 39.9936 255.88 40.1693C255.87 40.3459 255.852 40.5215 255.831 40.6972H250.387C250.414 40.5504 250.425 40.4012 250.42 40.252V39.7734C250.422 39.3535 250.389 38.9342 250.321 38.5197C250.264 38.1489 250.141 37.7913 249.958 37.4638C249.778 37.1518 249.516 36.895 249.2 36.7215C248.813 36.5216 248.381 36.4251 247.945 36.4413C247.27 36.4155 246.611 36.6451 246.098 37.0844C245.852 37.3123 245.66 37.5916 245.534 37.9024C245.409 38.2133 245.353 38.5479 245.372 38.8826C245.356 39.2548 245.418 39.6263 245.554 39.973C245.69 40.3196 245.898 40.6338 246.164 40.8951C246.746 41.4384 247.408 41.8892 248.127 42.2316C248.907 42.6163 249.76 42.9957 250.684 43.3697C251.592 43.735 252.451 44.2116 253.241 44.7885C254.032 45.3718 254.699 46.1064 255.204 46.9496C255.732 47.8186 255.996 48.9458 255.996 50.331C256.023 51.4728 255.833 52.6093 255.435 53.68C255.095 54.5666 254.54 55.3545 253.819 55.9727C253.077 56.5864 252.21 57.0313 251.278 57.2763C250.191 57.5633 249.07 57.702 247.945 57.6886C246.79 57.7047 245.638 57.5773 244.515 57.3092C243.597 57.0934 242.743 56.6638 242.023 56.0555C241.33 55.4397 240.808 54.6555 240.506 53.7787C240.137 52.6678 239.964 51.5012 239.994 50.331V49.8031C239.994 49.6266 240.006 49.4503 240.028 49.2752H245.472V50.1994C245.471 50.6136 245.504 51.0272 245.57 51.4362C245.626 51.8126 245.749 52.1759 245.933 52.5085C246.11 52.818 246.366 53.0744 246.676 53.2508C247.067 53.455 247.505 53.5519 247.945 53.5315C248.295 53.5522 248.645 53.4981 248.972 53.373C249.3 53.2478 249.596 53.0544 249.843 52.8056C250.313 52.2691 250.555 51.571 250.519 50.8589C250.537 50.4914 250.476 50.1242 250.34 49.7825C250.203 49.4408 249.994 49.1327 249.727 48.8793C249.139 48.3565 248.478 47.923 247.764 47.5927C246.983 47.2191 246.131 46.8562 245.207 46.5039C244.299 46.161 243.44 45.7008 242.651 45.135C241.86 44.564 241.193 43.8403 240.687 43.0068C240.159 42.1489 239.896 41.027 239.895 39.6413Z" fill="white"/>
        <path d="M116.636 68.1845H118.761C119.061 68.181 119.359 68.2157 119.649 68.2878C119.893 68.3474 120.123 68.4573 120.322 68.6105C120.509 68.7588 120.655 68.9515 120.748 69.1711C120.853 69.4331 120.903 69.7139 120.896 69.9962V73.09C120.903 73.3737 120.853 73.6558 120.748 73.9194C120.656 74.1408 120.509 74.3353 120.322 74.4845C120.123 74.6379 119.893 74.7478 119.649 74.8074C119.359 74.8793 119.061 74.914 118.761 74.9104H116.636V68.1845ZM118.761 73.7804C118.852 73.7877 118.943 73.7755 119.028 73.7445C119.113 73.7136 119.19 73.6646 119.255 73.6011C119.361 73.4863 119.418 73.3355 119.416 73.1796V69.9064C119.419 69.7517 119.361 69.6022 119.255 69.4894C119.19 69.4272 119.112 69.3795 119.027 69.3493C118.942 69.3192 118.851 69.3073 118.761 69.3145H118.116V73.7804H118.761Z" fill="white"/>
        <path d="M121.425 68.1845H123.568C124.316 68.1845 124.866 68.3475 125.219 68.6733C125.571 68.9992 125.748 69.5238 125.748 70.2472C125.764 70.6725 125.683 71.096 125.51 71.4847C125.349 71.8038 125.071 72.0481 124.734 72.1664L125.676 74.9104H124.268L123.389 72.3635H122.905V74.9104H121.425V68.1845ZM123.532 71.2337C123.71 71.244 123.885 71.1898 124.026 71.0813C124.143 70.9847 124.217 70.8462 124.232 70.6956C124.262 70.4153 124.262 70.1327 124.232 69.8525C124.221 69.7171 124.162 69.59 124.066 69.4939C123.951 69.3854 123.799 69.3245 123.64 69.3235C123.611 69.3162 123.581 69.3132 123.55 69.3146H122.905V71.2337H123.532Z" fill="white"/>
        <path d="M126.187 69.9064C126.179 69.6241 126.23 69.3433 126.335 69.0813C126.427 68.8626 126.572 68.6701 126.756 68.5209C126.954 68.3671 127.181 68.257 127.424 68.198C128.008 68.0606 128.616 68.0606 129.2 68.198C129.444 68.2577 129.673 68.3676 129.872 68.5209C130.059 68.669 130.206 68.8617 130.298 69.0813C130.404 69.3432 130.454 69.6241 130.447 69.9064V73.1796C130.454 73.4633 130.403 73.7456 130.298 74.0092C130.207 74.2306 130.06 74.425 129.872 74.5741C129.673 74.7275 129.444 74.8375 129.2 74.8969C128.616 75.0344 128.008 75.0344 127.424 74.8969C127.18 74.8378 126.953 74.726 126.756 74.5696C126.572 74.4181 126.428 74.2243 126.335 74.0047C126.23 73.7426 126.179 73.4619 126.187 73.1796V69.9064ZM127.666 73.2694C127.663 73.427 127.721 73.5799 127.828 73.6953C127.966 73.8091 128.139 73.871 128.318 73.8702C128.496 73.8694 128.669 73.8059 128.806 73.6908C128.911 73.5761 128.969 73.4253 128.967 73.2694V69.8168C128.969 69.662 128.911 69.5124 128.806 69.3996C128.74 69.3374 128.662 69.2897 128.577 69.2596C128.492 69.2295 128.402 69.2177 128.312 69.2249C128.224 69.2182 128.135 69.2302 128.051 69.2604C127.968 69.2905 127.892 69.3379 127.828 69.3996C127.722 69.5123 127.664 69.662 127.666 69.8168L127.666 73.2694Z" fill="white"/>
        <path d="M130.975 68.1845H132.455L133.755 72.498V68.1845H135.235V74.9104H133.755L132.455 70.588V74.9104H130.975V68.1845Z" fill="white"/>
        <path d="M137.872 70.0947C137.864 69.7844 137.916 69.4755 138.024 69.1845C138.117 68.9435 138.267 68.7293 138.463 68.5613C138.665 68.3945 138.901 68.2737 139.154 68.207C139.45 68.129 139.754 68.0913 140.06 68.0949C140.374 68.0906 140.687 68.1252 140.992 68.198C141.242 68.2569 141.474 68.3736 141.67 68.5388C141.858 68.7063 142 68.9194 142.082 69.1576C142.182 69.4596 142.229 69.7767 142.221 70.0948C142.221 70.1427 142.22 70.1905 142.217 70.2382C142.214 70.2861 142.209 70.334 142.203 70.3817H140.723C140.731 70.3418 140.734 70.3012 140.732 70.2607V70.1307C140.733 70.0165 140.724 69.9025 140.705 69.7899C140.69 69.6892 140.656 69.592 140.607 69.5029C140.558 69.4181 140.486 69.3483 140.401 69.3011C140.295 69.2467 140.178 69.2205 140.06 69.225C139.876 69.2179 139.697 69.2803 139.558 69.3997C139.491 69.4616 139.439 69.5375 139.404 69.622C139.37 69.7065 139.355 69.7975 139.361 69.8884C139.356 69.9896 139.373 70.0906 139.41 70.1849C139.447 70.2792 139.503 70.3646 139.576 70.4356C139.734 70.5834 139.914 70.7058 140.109 70.7986C140.321 70.9034 140.553 71.0065 140.804 71.108C141.051 71.2073 141.284 71.3369 141.499 71.4937C141.714 71.6523 141.895 71.852 142.033 72.0811C142.187 72.3621 142.262 72.68 142.248 73.0003C142.255 73.3106 142.204 73.6194 142.096 73.9105C142.003 74.1515 141.852 74.3657 141.656 74.5337C141.454 74.7007 141.219 74.8216 140.965 74.888C140.67 74.966 140.365 75.0037 140.06 75C139.746 75.0044 139.433 74.9698 139.127 74.897C138.878 74.8383 138.646 74.7215 138.45 74.5562C138.262 74.3889 138.12 74.1757 138.038 73.9374C137.937 73.6354 137.89 73.3183 137.899 73.0002V72.8568C137.899 72.8088 137.902 72.7609 137.908 72.7133H139.387V72.9643C139.387 73.077 139.396 73.1895 139.414 73.3007C139.429 73.403 139.463 73.5017 139.513 73.5921C139.561 73.6762 139.631 73.7459 139.715 73.7939C139.821 73.8494 139.94 73.8758 140.06 73.8703C140.155 73.8758 140.25 73.8611 140.339 73.8271C140.428 73.7931 140.508 73.7405 140.575 73.6729C140.703 73.5272 140.769 73.3373 140.759 73.1437C140.764 73.0439 140.748 72.9441 140.711 72.8512C140.673 72.7584 140.617 72.6747 140.544 72.6058C140.384 72.4637 140.205 72.3458 140.011 72.256C139.798 72.1544 139.567 72.0558 139.316 71.9601C139.069 71.8667 138.835 71.7416 138.62 71.5878C138.406 71.4327 138.224 71.236 138.087 71.0094C137.932 70.7304 137.857 70.4137 137.872 70.0947Z" fill="white"/>
        <path d="M142.741 68.1845H146.301V69.3145H144.221V71.0184H146.077V72.0766H144.221V73.7804H146.301V74.9104H142.741L142.741 68.1845Z" fill="white"/>
        <path d="M146.794 68.1845H148.938C149.685 68.1845 150.235 68.3475 150.588 68.6733C150.941 68.9992 151.117 69.5238 151.117 70.2472C151.134 70.6725 151.052 71.096 150.879 71.4847C150.718 71.8038 150.44 72.0481 150.103 72.1664L151.045 74.9104H149.637L148.759 72.3635H148.274V74.9104H146.794V68.1845ZM148.902 71.2337C149.079 71.244 149.254 71.1898 149.395 71.0813C149.512 70.9847 149.586 70.8462 149.601 70.6956C149.631 70.4153 149.631 70.1327 149.601 69.8525C149.59 69.7171 149.532 69.59 149.435 69.4939C149.32 69.3854 149.168 69.3245 149.01 69.3235C148.98 69.3162 148.95 69.3132 148.92 69.3146H148.274V71.2337H148.902Z" fill="white"/>
        <path d="M151.404 68.1845H152.947L153.565 73.7804H153.736L154.354 68.1845H155.897L154.892 74.9104H152.408L151.404 68.1845Z" fill="white"/>
        <path d="M156.363 68.1845H157.843V74.9104H156.363L156.363 68.1845Z" fill="white"/>
        <path d="M162.694 73.1796C162.702 73.4633 162.651 73.7456 162.546 74.0092C162.454 74.2306 162.308 74.425 162.12 74.5741C161.921 74.7275 161.692 74.8375 161.448 74.8969C160.864 75.0344 160.256 75.0344 159.672 74.8969C159.428 74.8378 159.2 74.726 159.004 74.5696C158.82 74.4181 158.675 74.2243 158.582 74.0047C158.477 73.7426 158.427 73.4619 158.434 73.1796V69.9064C158.427 69.6241 158.477 69.3433 158.582 69.0813C158.675 68.8626 158.82 68.6701 159.004 68.5209C159.201 68.3671 159.429 68.257 159.672 68.198C160.256 68.0606 160.864 68.0606 161.448 68.198C161.692 68.2577 161.921 68.3676 162.12 68.5209C162.307 68.669 162.453 68.8617 162.546 69.0813C162.651 69.3432 162.702 69.6241 162.694 69.9064V70.8929H161.214V69.8168C161.217 69.662 161.159 69.5124 161.053 69.3996C160.988 69.3374 160.91 69.2897 160.825 69.2596C160.74 69.2295 160.65 69.2177 160.56 69.2249C160.471 69.2182 160.382 69.2302 160.299 69.2604C160.216 69.2905 160.139 69.3379 160.076 69.3996C159.969 69.5123 159.911 69.662 159.914 69.8168V73.2694C159.91 73.427 159.968 73.5799 160.076 73.6953C160.213 73.8091 160.387 73.871 160.565 73.8702C160.744 73.8694 160.917 73.8059 161.053 73.6909C161.159 73.5761 161.216 73.4253 161.214 73.2694V72.1931H162.694L162.694 73.1796Z" fill="white"/>
        <path d="M163.223 68.1845H166.784V69.3145H164.703V71.0184H166.559V72.0766H164.703V73.7804H166.784V74.9104H163.223V68.1845Z" fill="white"/>
        <path d="M167.169 70.0947C167.162 69.7844 167.214 69.4755 167.322 69.1845C167.414 68.9435 167.565 68.7293 167.761 68.5613C167.963 68.3945 168.198 68.2737 168.452 68.207C168.747 68.129 169.052 68.0913 169.357 68.0949C169.671 68.0906 169.984 68.1252 170.29 68.198C170.539 68.2569 170.771 68.3736 170.967 68.5388C171.155 68.7063 171.297 68.9194 171.379 69.1576C171.48 69.4596 171.527 69.7767 171.518 70.0948C171.518 70.1427 171.517 70.1905 171.514 70.2382C171.511 70.2861 171.506 70.334 171.5 70.3817H170.021C170.028 70.3418 170.031 70.3012 170.03 70.2607V70.1307C170.03 70.0165 170.021 69.9025 170.003 69.7899C169.987 69.6892 169.954 69.592 169.905 69.5029C169.855 69.4181 169.784 69.3483 169.698 69.3011C169.593 69.2467 169.476 69.2205 169.357 69.225C169.174 69.2179 168.995 69.2803 168.855 69.3997C168.788 69.4616 168.736 69.5375 168.702 69.622C168.668 69.7065 168.653 69.7975 168.658 69.8884C168.654 69.9896 168.67 70.0906 168.707 70.1849C168.744 70.2792 168.801 70.3646 168.873 70.4356C169.031 70.5834 169.211 70.7058 169.407 70.7986C169.619 70.9034 169.851 71.0065 170.102 71.108C170.348 71.2073 170.582 71.3369 170.797 71.4937C171.012 71.6523 171.193 71.852 171.33 72.0811C171.485 72.3621 171.559 72.68 171.545 73.0003C171.553 73.3106 171.501 73.6194 171.393 73.9105C171.301 74.1515 171.15 74.3657 170.954 74.5337C170.752 74.7007 170.516 74.8216 170.263 74.888C169.967 74.966 169.663 75.0037 169.357 75C169.043 75.0044 168.73 74.9698 168.425 74.897C168.175 74.8383 167.943 74.7215 167.748 74.5562C167.559 74.3889 167.417 74.1757 167.335 73.9374C167.235 73.6354 167.188 73.3183 167.196 73.0002V72.8568C167.196 72.8088 167.199 72.7609 167.205 72.7133H168.685V72.9643C168.684 73.077 168.694 73.1895 168.712 73.3007C168.727 73.403 168.76 73.5017 168.81 73.5921C168.858 73.6762 168.928 73.7459 169.012 73.7939C169.118 73.8494 169.237 73.8758 169.357 73.8703C169.452 73.8758 169.547 73.8611 169.636 73.8271C169.725 73.7931 169.806 73.7405 169.873 73.6729C170.001 73.5272 170.067 73.3373 170.057 73.1437C170.062 73.0439 170.045 72.9441 170.008 72.8512C169.971 72.7584 169.914 72.6747 169.842 72.6058C169.682 72.4637 169.502 72.3458 169.308 72.256C169.096 72.1544 168.864 72.0558 168.613 71.9601C168.366 71.8667 168.132 71.7416 167.918 71.5878C167.703 71.4327 167.522 71.236 167.385 71.0094C167.229 70.7304 167.155 70.4137 167.169 70.0947Z" fill="white"/>
    </g>
    <defs>
        <clipPath id="clip0_5_39">
            <rect width="255.996" height="75" fill="white"/>
        </clipPath>
    </defs>
</svg>